<?xml version="1.0"?>
<svg xmlns="http://www.w3.org/2000/svg" 
	xmlns:xlink="http://www.w3.org/1999/xlink" version="1.1" id="Capa_1" x="0px" y="0px" viewBox="0 0 512 512" style=" -webkit-filter: drop-shadow(2px 2px 2px rgba(0,0,0,0.2)); enable-background:new 0 0 512.005 512.005;" xml:space="preserve" width="512px" height="512px" class="">
	<g >
		<g>
			<path style="fill:white" d="M452.766,306.14l57.821-23.127c1.882-17.959,1.882-36.066,0-54.026l-57.821-23.127   c-2.461-9.769-5.678-19.332-9.622-28.602c-3.657-8.537-7.874-16.824-12.623-24.806l24.629-57.379   c-5.65-6.974-11.741-13.683-18.097-20.127c-6.444-6.356-13.153-12.447-20.127-18.097l-57.379,24.629   c-7.982-4.749-16.268-8.966-24.806-12.623c-9.27-3.944-18.833-7.162-28.601-9.623L283.012,1.412   c-17.959-1.882-36.066-1.882-54.026,0l-23.127,57.821c-9.769,2.461-19.331,5.679-28.601,9.623   c-8.538,3.657-16.824,7.873-24.806,12.623L95.073,56.849c-6.974,5.65-13.683,11.741-20.127,18.097   C68.59,81.39,62.5,88.099,56.849,95.073l24.629,57.379c-4.749,7.982-8.966,16.268-12.623,24.806   c-3.944,9.27-7.161,18.833-9.623,28.602L1.412,228.987c-1.882,17.959-1.882,36.066,0,54.026l57.821,23.127   c2.461,9.769,5.679,19.331,9.623,28.601c3.657,8.538,7.874,16.824,12.623,24.806l-24.629,57.379   c5.65,6.974,11.741,13.683,18.097,20.127c6.444,6.356,13.153,12.446,20.127,18.097l57.379-24.629   c7.982,4.75,16.268,8.967,24.806,12.623c9.27,3.944,18.833,7.162,28.601,9.623l23.127,57.82c17.959,1.884,36.067,1.884,54.026,0   l23.127-57.821c9.769-2.461,19.331-5.679,28.601-9.623c8.538-3.657,16.824-7.873,24.806-12.623l57.379,24.629   c6.974-5.651,13.683-11.741,20.127-18.097c6.356-6.444,12.446-13.153,18.097-20.127l-24.629-57.379   c4.749-7.982,8.966-16.269,12.623-24.806C447.088,325.471,450.305,315.909,452.766,306.14z M314.262,394.327   c-37.264,15.655-79.26,15.655-116.524,0c-36.089-15.256-64.81-43.977-80.065-80.066c-15.655-37.264-15.655-79.261,0-116.525   c15.256-36.088,43.977-64.809,80.065-80.065c37.264-15.654,79.26-15.654,116.524,0c36.088,15.256,64.809,43.977,80.066,80.066   c15.655,37.264,15.655,79.261,0,116.525C379.071,350.351,350.35,379.072,314.262,394.327z" data-original="#BDC3C7" class="active-path" data-old_color="#DBE0E5"/>
			<g>
				<path style="fill:#DAA520" d="M105.93,256c-0.04,20.012,3.953,39.827,11.741,58.262l-48.817,20.479    c-3.944-9.27-7.162-18.833-9.623-28.601L1.412,283.013c-1.882-17.959-1.882-36.066,0-54.026l57.821-23.127    c2.461-9.769,5.679-19.332,9.623-28.602l48.817,20.479C109.884,216.172,105.89,235.987,105.93,256z" data-original="#CC4B4C" class="" data-old_color="#daa520"/>
				<path style="fill:#DAA520" d="M334.741,68.855l-20.479,48.816c-37.264-15.654-79.26-15.654-116.524,0l-20.479-48.816    c9.27-3.944,18.833-7.162,28.601-9.623l23.127-57.821c17.959-1.882,36.066-1.882,54.026,0l23.127,57.821    C315.908,61.694,325.471,64.911,334.741,68.855z" data-original="#CC4B4C" class="" data-old_color="#daa520"/>
				<path style="fill:#DAA520" d="M511.999,256c0.018,9.023-0.453,18.041-1.412,27.013l-57.821,23.127    c-2.461,9.769-5.679,19.331-9.623,28.601l-48.817-20.479c15.655-37.264,15.655-79.261,0-116.525l48.817-20.479    c3.944,9.27,7.161,18.833,9.622,28.602l57.821,23.127C511.546,237.959,512.017,246.977,511.999,256z" data-original="#CC4B4C" class="" data-old_color="#daa520"/>
				<path style="fill:#DAA520" d="M334.741,443.145c-9.27,3.944-18.833,7.162-28.601,9.623l-23.127,57.82    c-17.959,1.884-36.066,1.884-54.026,0l-23.127-57.821c-9.769-2.461-19.331-5.679-28.601-9.623l20.479-48.817    c37.264,15.655,79.26,15.655,116.524,0L334.741,443.145z" data-original="#CC4B4C" class="" data-old_color="#daa520"/>
				<circle style="fill:#DAA520" cx="255.999" cy="344.276" r="17.655" data-original="#CC4B4C" class="" data-old_color="#daa520"/>
				<path style="fill:#DAA520" d="M253.033,291.068c-8.697-1.754-14.886-9.49-14.689-18.36v-8.686    c0.312-12.682,9.344-23.466,21.775-25.997c13.925-2.188,23.698-14.899,22.234-28.919s-13.65-24.439-27.727-23.704    c-14.077,0.734-25.114,12.364-25.11,26.46c-0.002,5.188-2.284,10.114-6.241,13.469c-3.957,3.356-9.19,4.802-14.308,3.955    c-9.085-1.834-15.393-10.131-14.73-19.375c0.988-31.569,25.618-57.314,57.112-59.699c31.494-2.385,59.72,19.357,65.452,50.416    s-12.875,61.444-43.146,70.457v2.569c-0.002,5.201-2.295,10.137-6.269,13.493C263.412,290.504,258.161,291.938,253.033,291.068z" data-original="#CC4B4C" class="" data-old_color="#daa520"/>
			</g>
		</g>
	</g>
</svg>
