<?xml version="1.0" encoding="UTF-8" standalone="no"?>
<svg
   version="1.0"
   width="1280.000000pt"
   height="886.000000pt"
   viewBox="0 0 1280.000000 886.000000"
   preserveAspectRatio="xMidYMid meet"
   style="  -webkit-filter: drop-shadow(2px 2px 2px rgba(0, 0, 0, 0.4));   filter: drop-shadow(2px 2px 2px rgba(0, 0, 0, 0.4));"
   id="svg6"
   sodipodi:docname="download.svg"
   inkscape:version="1.2.2 (732a01da63, 2022-12-09)"
   xmlns:inkscape="http://www.inkscape.org/namespaces/inkscape"
   xmlns:sodipodi="http://sodipodi.sourceforge.net/DTD/sodipodi-0.dtd"
   xmlns="http://www.w3.org/2000/svg"
   xmlns:svg="http://www.w3.org/2000/svg">
  <defs
     id="defs10" />
  <sodipodi:namedview
     id="namedview8"
     pagecolor="#ffffff"
     bordercolor="#000000"
     borderopacity="0.25"
     inkscape:showpageshadow="2"
     inkscape:pageopacity="0.0"
     inkscape:pagecheckerboard="0"
     inkscape:deskcolor="#d1d1d1"
     inkscape:document-units="pt"
     showgrid="false"
     inkscape:zoom="0.19977427"
     inkscape:cx="875.9887"
     inkscape:cy="590.66667"
     inkscape:window-width="1440"
     inkscape:window-height="847"
     inkscape:window-x="-8"
     inkscape:window-y="-8"
     inkscape:window-maximized="1"
     inkscape:current-layer="g4" />
  <g
     transform="matrix(0.1,0,0,-0.1,0,886)"
     fill="#000000"
     stroke="none"
     id="g4">
    <path
       id="rect227"
       style="fill:#d40000;stroke-width:7.5"
       d="M 37.543945 -8822.4561 L 37.543945 -4727.6172 C 59.845588 -4771.3835 86.59778 -4823.5635 149.07715 -4930.7764 L 301.17188 -5191.2988 L 600.14648 -5197.334 L 899.13574 -5203.3691 L 1048.2422 -5461.8994 L 1198.3301 -5721.4111 L 1480.3418 -5719.3896 C 1721.3506 -5717.225 1764.3439 -5718.3745 1776.2988 -5731.416 C 1784.271 -5739.4437 1851.8814 -5853.6887 1927.4268 -5984.9512 L 2064.6094 -6223.4277 L 2040.4541 -6266.333 C 2027.3744 -6289.2878 1961.9827 -6404.0685 1895.5811 -6519.8389 L 1774.8486 -6730.4248 L 1474.834 -6732.3877 L 1175.8301 -6734.3506 L 1021.9043 -7000.8057 L 867.97852 -7267.2754 L 1020.0586 -7530.8154 L 1172.1533 -7794.3408 L 1472.1387 -7798.3838 L 1771.1279 -7802.4121 L 1920.2344 -8061.9385 L 2069.3262 -8322.4463 L 2376.3281 -8323.5156 L 2682.3193 -8324.5703 L 2832.2168 -8066.0986 L 2981.1182 -7806.6016 L 3280.1221 -7804.6387 L 3579.1406 -7802.6758 L 3723.0029 -7553.1836 L 3866.8652 -7303.6768 L 3964.8926 -7298.0078 C 4018.906 -7294.195 4146.9083 -7291.6524 4248.9111 -7291.0059 L 4435.9131 -7290.6543 L 4585.0195 -7549.1699 L 4734.126 -7806.6895 L 5027.124 -7810.7031 L 5321.1035 -7813.7207 L 5470.21 -8074.2432 L 5619.3018 -8333.7549 L 5918.291 -8337.7979 L 6217.2803 -8341.8262 L 6366.3867 -8600.3418 L 6495 -8822.4561 L 37.543945 -8822.4561 z M 6532.4561 -8822.4561 L 6391.4648 -8577.4316 L 6247.3389 -8325.9326 L 6389.1943 -8079.4287 L 6532.0459 -7832.9102 L 6817.0752 -7826.9043 C 7075.0976 -7820.7986 7102.099 -7821.8858 7113.0469 -7836.9238 C 7138.9288 -7871.0137 7394.3758 -8318.9063 7394.3408 -8328.9062 C 7394.3238 -8333.9062 7329.9235 -8449.6868 7252.4561 -8584.4189 L 7113.9551 -8822.4561 L 6532.4561 -8822.4561 z M 7153.0371 -8822.4561 L 7280.3906 -8600.5176 L 7429.292 -8341.0352 L 7728.2959 -8340.0684 L 8027.3145 -8338.1055 L 8180.2295 -8072.6318 L 8333.1445 -7808.1543 L 8185.0342 -7553.6377 C 8104.52 -7413.3579 8037.9246 -7296.1298 8037.9346 -7293.1299 C 8037.9446 -7290.1299 8103.3298 -7176.3532 8182.8076 -7038.6279 L 8326.6846 -6789.1357 L 8625.6885 -6787.1729 L 8924.6924 -6786.2061 L 9062.8564 -7026.6895 C 9138.4019 -7157.952 9206.0088 -7274.1776 9211.9775 -7283.1982 C 9222.9255 -7298.2363 9251.9142 -7299.3421 9529.9365 -7293.3057 L 9835.957 -7287.3584 L 9988.8721 -7022.8955 L 10140.791 -6759.4141 L 9988.7109 -6494.8926 L 9836.6309 -6229.3604 L 9526.626 -6228.291 L 9216.6357 -6226.2109 L 9092.3877 -6009.7803 C 9023.8007 -5890.5419 8960.1802 -5779.3148 8950.2393 -5762.2803 L 8932.3535 -5731.2256 L 9074.209 -5483.7109 L 9217.0605 -5237.207 L 9513.0615 -5238.2324 L 9810.0586 -5239.2578 L 9958.96 -4980.7715 L 10107.847 -4723.2959 L 10228.872 -4717.7148 C 10295.885 -4713.9471 10424.895 -4711.3936 10515.894 -4711.709 L 10681.89 -4712.2803 L 10830.996 -4972.8027 L 10980.088 -5232.3145 L 11290.093 -5234.3945 L 11600.083 -5235.4639 L 11750.991 -4975.9814 L 11901.885 -4716.5137 L 12197.886 -4717.5391 L 12493.887 -4718.5645 L 12646.802 -4453.0908 C 12731.307 -4307.383 12797.742 -4182.6158 12794.766 -4175.6055 C 12792.787 -4169.5986 12723.203 -4049.3458 12641.689 -3909.0625 L 12493.579 -3653.5498 L 12198.56 -3656.5381 L 11904.551 -3659.5117 L 11754.448 -3399.9854 L 11605.342 -3140.4736 L 11309.355 -3136.4453 L 11014.365 -3133.4277 L 10863.267 -2872.9053 L 10712.168 -2612.3682 L 10416.167 -2611.3428 L 10119.17 -2610.3174 L 9984.9756 -2378.8574 C 9911.4199 -2250.6019 9846.8106 -2139.3752 9842.8418 -2130.3613 C 9836.8869 -2117.3406 9874.1274 -2044.47 9982.7783 -1856.8457 L 10130.669 -1600.3516 L 10316.675 -1600 C 10418.678 -1599.3535 10553.69 -1596.8236 10616.704 -1593.042 L 10731.724 -1587.4316 L 10879.614 -1332.9443 C 10961.099 -1193.2261 11028.51 -1072.4638 11028.53 -1065.4639 C 11029.551 -1059.4674 10961.975 -936.23449 10878.472 -792.94434 L 10728.384 -532.42187 L 10432.383 -531.39648 L 10135.386 -530.35645 L 9986.2793 -272.83691 L 9837.1729 -14.321289 L 9527.1826 -10.249023 L 9218.1885 -7.1728516 L 9069.2871 -266.66992 L 8920.3857 -526.15234 L 8622.3926 -525.1123 L 8325.3955 -524.08691 L 8176.4941 -783.56934 L 8026.5967 -1043.0518 L 7745.5957 -1042.085 L 7464.5947 -1040.1074 L 7315.5029 -780.5957 L 7166.3965 -520.07324 L 6869.3994 -519.04785 L 6573.3984 -518.02246 L 6422.3145 -257.48535 L 6271.2158 3.0371094 L 5964.2139 4.1064453 L 5657.2119 5.1611328 L 5508.3105 -254.32129 L 5358.4131 -513.80371 L 5061.416 -512.77832 L 4764.4189 -511.73828 L 4619.5459 -763.2373 L 4473.6621 -1015.7471 L 4194.6387 -1022.7783 C 3926.6128 -1029.8494 3914.6152 -1029.7999 3899.6777 -1011.748 C 3891.7159 -1000.7204 3822.1292 -883.48081 3745.5908 -750.21484 L 3606.416 -507.72461 L 3296.4258 -506.65527 L 2985.4248 -505.58594 L 2836.5234 -765.06836 L 2686.626 -1024.5508 L 2390.625 -1023.5254 L 2093.6279 -1022.4854 L 1939.7021 -1287.959 L 1785.791 -1553.4326 L 1850.4053 -1664.6582 C 1886.1901 -1726.7825 1952.7786 -1843.0149 1998.501 -1923.1738 L 2083.0078 -2068.457 L 1936.1279 -2322.959 L 1789.248 -2576.4502 L 1490.2295 -2580.4053 L 1192.207 -2584.375 L 1041.3135 -2843.8574 C 958.8184 -2986.5723 893.38766 -3110.3437 895.35645 -3119.3506 C 897.32523 -3128.3575 962.92538 -3244.5821 1040.4639 -3377.8516 C 1117.0024 -3511.1175 1180.6078 -3624.3359 1180.5908 -3629.3359 C 1180.5768 -3633.3359 1117.1769 -3747.1277 1038.7061 -3882.8564 L 896.85059 -4128.3643 L 600.86426 -4127.3389 L 303.86719 -4126.2988 L 152.95898 -4386.7773 C 89.94822 -4495.2267 60.898383 -4548.984 37.543945 -4592.3975 L 37.543945 112.62207 L 12877.031 112.62207 L 12877.031 -8822.4561 L 7153.0371 -8822.4561 z M 8002.3975 -8313.0127 L 7719.3896 -8312.0312 C 7505.3912 -8311.2895 7434.4151 -8308.0476 7427.4463 -8299.0234 C 7413.5088 -8280.975 7166.9765 -7854.1181 7154.0771 -7825.0732 C 7145.15 -7804.0422 7158.2494 -7776.0794 7275.9521 -7573.4863 C 7348.3884 -7447.7368 7412.7686 -7337.9649 7419.7998 -7328.9893 C 7430.8448 -7316.0276 7473.8506 -7313.1776 7717.8662 -7309.0234 L 8003.8916 -7304.0137 L 8146.04 -7551.5137 C 8224.5682 -7687.7865 8289.1576 -7804.0039 8289.1406 -7809.0039 C 8289.1196 -7815.0039 8224.7194 -7929.78 8146.2451 -8066.5088 L 8002.3975 -8313.0127 z M 5639.4141 -8303.8281 L 5498.2617 -8057.3389 L 5356.1279 -7809.8389 L 5500.9863 -7560.3467 L 5646.8555 -7309.8437 L 5933.8623 -7310.8398 L 6220.8545 -7311.8359 L 6363.0029 -7559.3213 L 6506.1475 -7805.8252 L 6362.2852 -8054.3359 L 6219.4189 -8301.8359 L 5929.4238 -8302.832 L 5639.4141 -8303.8281 z M 2089.4238 -8294.5264 L 1950.2637 -8052.0361 C 1873.7286 -7917.7702 1810.1202 -7802.5489 1808.1445 -7795.542 C 1805.1931 -7781.5317 2055.7578 -7334.3977 2085.8789 -7299.502 C 2099.9343 -7283.5506 2123.9325 -7282.633 2381.9238 -7285.5273 L 2662.9102 -7289.4971 L 2808.0469 -7540 L 2954.1797 -7790.5176 L 2925 -7840.4102 C 2908.9065 -7867.3545 2844.5224 -7979.1297 2782.1484 -8086.9141 L 2669.458 -8284.5361 L 2564.458 -8284.1699 C 2506.4585 -8283.9689 2376.4578 -8286.5185 2274.4482 -8289.165 L 2089.4238 -8294.5264 z M 7111.2012 -7789.917 L 6825.2051 -7788.9355 L 6538.2129 -7787.9395 L 6402.0264 -7552.4658 C 6327.4774 -7422.2068 6263.8721 -7307.985 6260.9033 -7298.9746 C 6258.938 -7288.9678 6315.3163 -7179.1644 6398.8184 -7034.4531 L 6541.6699 -6787.9492 L 6827.666 -6788.9307 L 7114.6729 -6789.9268 L 7253.833 -7031.4062 C 7330.3749 -7163.6722 7392.9732 -7278.8937 7392.9492 -7285.8936 C 7392.9212 -7293.8935 7329.5279 -7409.677 7252.0605 -7544.4092 L 7111.2012 -7789.917 z M 4757.2119 -7781.7578 L 4715.4639 -7709.6143 C 4616.0642 -7536.2688 4504.7303 -7343.8864 4486.8311 -7314.8242 L 4468.9453 -7284.7656 L 4611.7969 -7035.2588 L 4755.6592 -6786.748 L 5044.6729 -6785.752 L 5334.6826 -6783.7598 L 5476.8164 -7031.2598 L 5618.9648 -7277.749 L 5474.1064 -7528.252 L 5329.2334 -7778.7402 L 5043.2227 -7780.7617 L 4757.2119 -7781.7578 z M 2989.2188 -7778.6377 L 2934.5508 -7684.4482 C 2755.6162 -7376.8264 2697.9615 -7275.6299 2697.9785 -7270.6299 C 2698.0065 -7262.6299 2930.4039 -6857.4282 2965.5908 -6803.5498 L 2989.7314 -6766.6357 L 3266.7188 -6769.5947 L 3543.7061 -6772.5537 L 3680.8887 -7008.0273 C 3755.441 -7137.2863 3822.0406 -7252.5266 3828.999 -7264.5508 C 3837.9331 -7283.5819 3821.8268 -7316.5264 3700.0928 -7528.1055 L 3560.2441 -7770.6104 L 3274.2334 -7774.624 L 2989.2188 -7778.6377 z M 1197.2314 -7769.4238 L 1128.6475 -7652.1924 C 1090.8731 -7587.0611 1025.2613 -7473.8272 982.51465 -7400.6787 L 905.97656 -7268.418 L 1049.8389 -7018.9111 L 1194.7119 -6769.4043 L 1484.707 -6770.415 L 1774.7021 -6772.4219 L 1910.874 -7010.8984 C 1986.4229 -7141.161 2049.0249 -7255.3685 2051.9971 -7263.3789 C 2054.9694 -7271.3892 1992.5641 -7387.1804 1914.0967 -7521.9092 L 1771.2451 -7766.4209 L 1484.2383 -7768.4131 L 1197.2314 -7769.4238 z M 5653.0078 -7264.873 L 5513.8477 -7023.3789 C 5437.3092 -6890.1129 5373.7042 -6775.8985 5371.7285 -6768.8916 C 5369.7562 -6760.8848 5432.1541 -6646.0892 5508.6182 -6512.3535 L 5648.4668 -6269.8486 L 5937.4658 -6268.8525 L 6226.4795 -6266.8457 L 6368.6279 -6513.335 L 6510.7764 -6759.8389 L 6366.8994 -7011.3379 L 6222.0264 -7261.8408 L 5938.0225 -7263.8477 L 5653.0078 -7264.873 z M 7925.0244 -7263.7451 C 7748.9806 -7276.1349 7441.0047 -7272.0629 7431.0498 -7259.0283 C 7417.1123 -7240.9799 7170.5831 -6814.1263 7158.6768 -6787.085 C 7149.7462 -6767.0539 7167.874 -6731.1064 7289.6045 -6520.5273 L 7431.4453 -6276.0303 L 7504.4678 -6270.2734 C 7543.4814 -6266.4086 7673.5013 -6263.8625 7791.5039 -6263.2715 L 8006.499 -6263.0225 L 8153.6133 -6517.5244 L 8299.7314 -6772.041 L 8158.9014 -7014.5459 L 8018.0566 -7258.0615 L 7925.0244 -7263.7451 z M 4161.0205 -7259.6875 L 3879.0234 -7258.7207 L 3825.3369 -7166.5234 C 3795.5138 -7115.4198 3729.9129 -7002.197 3680.2148 -6915.0244 L 3588.7646 -6756.7041 L 3732.627 -6508.208 L 3876.4893 -6258.7012 L 4157.4902 -6259.6826 L 4439.4873 -6260.6494 L 4584.624 -6511.1523 L 4728.75 -6762.666 L 4585.8838 -7011.1621 L 4443.0176 -7259.6729 L 4161.0205 -7259.6875 z M 9816.0645 -7259.292 L 9524.0625 -7258.2812 L 9233.0566 -7257.2705 L 9098.8623 -7025.8105 C 9025.3065 -6897.555 8960.6977 -6785.3249 8955.7324 -6775.3076 C 8949.7775 -6762.2869 8980.9905 -6699.4006 9091.6553 -6507.7832 L 9235.5322 -6257.2803 L 9526.5234 -6258.291 L 9816.5186 -6260.2979 L 9940.7666 -6476.7285 C 10009.354 -6595.9669 10073.974 -6708.1862 10083.911 -6726.2207 L 10102.793 -6759.2822 L 9958.9307 -7008.7891 L 9816.0645 -7259.292 z M 2663.0273 -7254.502 L 2378.0273 -7253.5205 L 2093.042 -7252.5244 L 1949.8975 -7005.0244 C 1870.3694 -6868.7481 1806.7612 -6752.5381 1806.7822 -6746.5381 C 1806.7992 -6741.5382 1869.1996 -6627.7419 1946.6602 -6495.0098 L 2085.498 -6252.4902 L 2377.5 -6253.501 L 2668.4912 -6254.5117 L 2810.6543 -6500.0049 C 2920.9915 -6691.3883 2950.7838 -6750.4921 2943.7354 -6764.4678 C 2938.7008 -6774.4504 2873.2977 -6889.2272 2798.8477 -7018.9697 L 2663.0273 -7254.502 z M 8332.8076 -6754.1553 L 8186.6748 -6501.6455 L 8041.5527 -6250.1318 L 8183.4082 -6001.6357 L 8325.2637 -5754.1211 L 8617.2656 -5755.1318 L 8908.2568 -5756.1426 L 9051.416 -6002.6318 C 9176.663 -6220.067 9192.5414 -6252.1286 9182.4756 -6271.0937 C 9175.4375 -6282.0694 9111.0534 -6395.8506 9037.6172 -6521.5967 L 8904.8145 -6751.1377 L 8618.8037 -6753.1445 L 8332.8076 -6754.1553 z M 7117.8076 -6749.9365 L 6830.8154 -6748.9404 L 6544.8047 -6747.959 L 6405.6445 -6506.4648 C 6329.106 -6373.1989 6265.4933 -6260.9835 6263.5107 -6255.9766 C 6261.528 -6250.9697 6324.9401 -6135.1896 6403.418 -5997.4609 L 6547.2803 -5747.9541 L 6833.2764 -5748.9502 L 7118.2764 -5749.9316 L 7252.4707 -5981.4062 C 7326.0265 -6109.6618 7390.6353 -6221.8772 7395.6006 -6231.8945 C 7402.552 -6245.9187 7372.349 -6305.8158 7260.6738 -6500.4297 L 7117.8076 -6749.9365 z M 5334.8145 -6743.7549 L 5047.8223 -6742.7588 L 4760.8154 -6741.7773 L 4690.2393 -6621.5283 C 4652.4683 -6555.3971 4589.8389 -6447.1758 4551.0645 -6382.041 C 4513.2935 -6315.9098 4481.4967 -6256.8018 4481.5137 -6251.8018 C 4481.5347 -6245.8019 4545.9457 -6128.0192 4625.4199 -5991.2939 L 4768.2861 -5741.7871 L 5053.2861 -5742.7832 L 5338.2861 -5744.7607 L 5418.7939 -5887.041 C 5463.5232 -5965.1964 5528.1251 -6077.4197 5561.9238 -6135.5371 L 5622.5537 -6242.749 L 5478.6914 -6493.252 L 5334.8145 -6743.7549 z M 3021.8408 -6731.7432 C 2988.8168 -6738.6288 3013.6998 -6774.7172 2791.0254 -6391.9434 L 2699.5752 -6233.623 L 2844.4482 -5982.124 L 2989.3213 -5730.625 L 3275.3174 -5728.6182 L 3561.3281 -5727.6074 L 3701.4844 -5971.0937 C 3778.0194 -6105.3597 3841.6283 -6219.5851 3841.6113 -6224.585 C 3841.5973 -6228.585 3777.1975 -6344.3655 3699.7266 -6480.0977 L 3557.8711 -6727.5977 L 3304.8633 -6726.7187 C 3165.8642 -6726.237 3038.8511 -6728.8022 3021.8408 -6731.7432 z M 8008.6084 -6233.0225 L 7722.6123 -6232.0264 L 7436.6162 -6230.0488 L 7297.4561 -5987.5586 C 7220.9175 -5854.2926 7158.3158 -5740.0712 7158.3398 -5733.0713 C 7158.3608 -5727.0713 7221.7611 -5611.2947 7299.2285 -5476.5625 L 7440.0732 -5231.0547 L 7724.0625 -5234.0283 L 8007.0557 -5238.0127 L 8151.1963 -5487.5195 C 8259.5439 -5675.896 8293.3075 -5742.0028 8286.2695 -5752.9785 C 8281.2383 -5761.9611 8216.8505 -5873.7467 8142.4072 -6001.4893 L 8008.6084 -6233.0225 z M 6226.6113 -6226.8408 L 5941.6113 -6225.8594 L 5656.626 -6224.8779 L 5517.4658 -5982.3877 C 5440.9239 -5850.1217 5376.3146 -5736.9028 5375.332 -5731.8994 C 5373.3493 -5726.8925 5435.7395 -5611.1085 5514.2139 -5474.3799 L 5657.0801 -5224.873 L 5945.083 -5225.8691 L 6233.0859 -5226.8652 L 6363.3105 -5450.3125 C 6433.8837 -5573.5577 6497.4967 -5685.7805 6504.4482 -5699.8047 C 6514.3649 -5723.8392 6505.2876 -5744.8152 6371.4844 -5976.3525 L 6226.6113 -6226.8408 z M 3895.6201 -6221.7725 L 3874.7168 -6192.6953 C 3860.7897 -6171.6469 3640.0995 -5792.8868 3597.3633 -5716.7383 C 3596.3737 -5713.7348 3659.7741 -5599.9503 3738.252 -5462.2217 L 3883.1104 -5213.7256 L 4162.1191 -5211.6895 L 4442.124 -5210.6494 L 4584.2725 -5458.1494 C 4662.797 -5595.4223 4728.4045 -5709.6552 4730.3906 -5713.6621 C 4731.3802 -5716.6655 4669.9761 -5830.447 4591.5088 -5965.1758 L 4449.668 -6210.6836 L 4342.6611 -6210.3174 C 4284.6615 -6210.1163 4159.6577 -6212.6783 4065.6445 -6216.3525 L 3895.6201 -6221.7725 z M 2669.6338 -6214.5215 L 2382.6416 -6213.5254 L 2096.6455 -6212.5293 L 1953.501 -5966.04 L 1811.3525 -5719.5361 L 1834.4971 -5677.627 C 1847.5802 -5653.6722 1912.9685 -5540.8876 1979.3701 -5425.1172 L 2100.1025 -5215.542 L 2380.1221 -5210.5029 C 2594.1379 -5206.2447 2662.1334 -5207.4883 2671.0986 -5217.5195 C 2684.05 -5231.5645 2940.4988 -5676.4514 2949.4189 -5699.4824 C 2953.3843 -5709.4962 2901.0366 -5810.3208 2812.5 -5965.0146 L 2669.6338 -6214.5215 z M 8901.4014 -5716.123 L 8614.4092 -5715.127 L 8328.3984 -5714.1309 L 8189.2383 -5471.6406 C 8112.6964 -5339.3747 8049.1026 -5223.1573 8047.1338 -5214.1504 C 8046.165 -5205.147 8107.5625 -5090.3552 8185.0195 -4958.623 L 8324.8535 -4719.1064 L 8611.8457 -4720.1025 L 8898.8525 -4721.0986 L 9038.0127 -4961.582 C 9114.5546 -5093.848 9179.163 -5207.0814 9182.1387 -5214.0918 C 9184.1179 -5220.0987 9122.7203 -5335.8866 9044.2529 -5470.6152 L 8901.4014 -5716.123 z M 7119.4189 -5709.9414 L 6836.4111 -5708.96 L 6554.4141 -5707.9785 L 6500.7422 -5615.7959 C 6470.9191 -5564.6922 6405.3036 -5451.4696 6355.6055 -5364.2969 L 6263.1592 -5205.9619 L 6407.0215 -4956.4697 L 6551.8799 -4707.959 L 6831.8848 -4708.9404 L 7111.875 -4710.9033 L 7256.001 -4962.4023 C 7335.5221 -5100.6786 7399.1267 -5217.9025 7397.1094 -5222.8955 C 7396.0921 -5227.892 7332.7031 -5338.6711 7257.2461 -5470.4102 L 7119.4189 -5709.9414 z M 5341.4209 -5703.7744 L 5059.4238 -5702.793 L 4778.4229 -5701.8262 L 4634.2969 -5452.3193 C 4554.7758 -5314.0431 4491.1716 -5198.8251 4491.1816 -5195.8252 C 4492.192 -5192.8286 4555.5771 -5080.054 4632.041 -4946.3184 L 4771.8896 -4702.8027 L 5056.8896 -4703.7842 L 5341.8896 -4704.7656 L 5422.3975 -4847.0459 C 5467.1267 -4925.2013 5531.7321 -5037.4353 5565.5273 -5096.5527 L 5628.1494 -5204.7607 L 5484.2871 -5454.2676 L 5341.4209 -5703.7744 z M 3561.4307 -5697.6074 L 3278.4375 -5696.626 C 3064.439 -5695.8842 2993.4482 -5692.6424 2986.4795 -5683.6182 C 2981.5038 -5676.6009 2915.8956 -5564.3739 2840.3467 -5434.1113 L 2705.1563 -5197.6416 L 2849.0186 -4949.1309 L 2992.8809 -4700.6348 L 3281.8799 -4701.6309 L 3570.8789 -4702.627 L 3712.0313 -4948.1201 L 3854.1797 -5193.6133 L 3836.0742 -5223.5547 C 3825.0188 -5239.5165 3759.6349 -5353.2932 3689.209 -5476.0498 L 3561.4307 -5697.6074 z M 1213.4766 -5679.4727 L 1190.6104 -5642.3828 C 1178.6832 -5621.3414 1114.0633 -5510.1181 1047.4658 -5393.8867 L 926.20605 -5183.4766 L 949.33594 -5143.5449 C 962.4121 -5121.5901 1027.8146 -5007.8167 1095.2197 -4891.0498 L 1218.9551 -4679.4824 L 1504.9365 -4682.4707 L 1790.9326 -4686.4697 L 1932.085 -4931.9482 L 2074.2334 -5177.4414 L 2040.0146 -5237.3242 C 2021.9004 -5270.2616 1957.5085 -5383.0398 1897.1484 -5486.8311 L 1787.4902 -5676.4551 L 1500.4834 -5678.4619 L 1213.4766 -5679.4727 z M 11581.187 -5205.4053 L 11294.194 -5204.4092 C 11077.197 -5203.6571 11005.205 -5200.4109 10998.237 -5191.3867 C 10988.282 -5178.3521 10750.696 -4767.514 10727.842 -4725.4346 C 10717.911 -4705.4001 10732.019 -4676.4587 10859.795 -4452.9004 L 11003.657 -4203.3936 L 11292.642 -4207.3926 L 11581.641 -4210.3955 L 11724.785 -4457.8955 L 11867.915 -4706.3916 L 11725.049 -4955.8984 L 11581.187 -5205.4053 z M 7457.168 -5204.1016 L 7432.3096 -5165.0195 C 7418.3859 -5142.9712 7350.7794 -5027.7345 7282.1924 -4908.4961 L 7156.9482 -4691.0693 L 7297.793 -4447.5537 L 7439.6338 -4204.0381 L 7714.6582 -4196.9922 C 7941.6775 -4191.779 7992.6808 -4192.9562 8003.6426 -4203.9941 C 8021.5732 -4224.0564 8289.959 -4686.9943 8289.917 -4698.9941 C 8289.893 -4705.9941 8025.2781 -5172.0731 8011.2158 -5190.0244 C 8011.2158 -5190.0244 7886.2121 -5193.5972 7734.1992 -5197.0703 L 7457.168 -5204.1016 z M 9216.2109 -5193.2031 C 9211.2318 -5187.1858 9152.5839 -5087.9795 9085.9863 -4971.748 C 9019.3855 -4856.5167 8956.7559 -4747.2992 8946.8115 -4731.2646 L 8927.915 -4701.2061 L 9071.792 -4451.6992 L 9215.6543 -4202.1924 L 9504.6533 -4201.1963 L 9793.667 -4199.2041 L 9932.8271 -4441.6797 C 10009.366 -4574.9457 10072.97 -4689.1747 10074.946 -4696.1816 C 10077.907 -4707.1919 9815.2853 -5173.2774 9797.2266 -5190.2148 C 9784.1851 -5202.1697 9225.1728 -5204.2342 9216.2109 -5193.2031 z M 6233.2178 -5186.8604 L 5947.2217 -5185.8789 L 5660.2295 -5184.8828 L 5517.0703 -4938.3789 C 5391.8233 -4720.9437 5375.945 -4688.8968 5386.0107 -4669.9316 C 5393.0488 -4658.956 5457.4295 -4546.1748 5530.8691 -4419.4287 L 5663.6719 -4189.8877 L 5948.6865 -4187.8662 L 6234.6826 -4186.8701 L 6375.835 -4431.3525 C 6453.3699 -4565.622 6516.975 -4680.8398 6516.958 -4685.8398 C 6516.941 -4690.8397 6453.5441 -4805.6239 6375.0732 -4941.3525 L 6233.2178 -5186.8604 z M 4445.2295 -5180.6641 L 4165.2393 -5179.6973 L 3886.2305 -5178.7305 L 3832.5586 -5086.5479 C 3802.7356 -5035.4442 3737.1199 -4922.2068 3687.4219 -4835.0342 L 3595.9717 -4677.7246 L 3738.8379 -4429.2139 L 3880.6934 -4181.6992 L 4082.71 -4176.4111 C 4192.7231 -4172.7924 4322.7318 -4170.2424 4369.7314 -4170.4053 L 4454.7363 -4170.6982 L 4599.8584 -4421.2012 L 4743.999 -4670.6934 L 4619.2383 -4888.2666 C 4550.8227 -5008.0301 4483.4282 -5122.7987 4469.3555 -5143.75 L 4445.2295 -5180.6641 z M 2394.2725 -5163.5547 L 2108.2764 -5162.5732 L 1967.124 -4919.0723 C 1890.589 -4784.8063 1826.9761 -4670.585 1826.9971 -4664.585 C 1827.0181 -4658.585 1890.4291 -4542.8048 1968.8965 -4408.0762 L 2110.752 -4162.5684 L 2390.7422 -4165.542 L 2671.7285 -4169.5117 L 2813.877 -4415.0049 C 2892.4085 -4550.2777 2957.0132 -4664.5029 2956.9922 -4670.5029 C 2956.9752 -4675.5028 2894.5816 -4789.2921 2819.1211 -4922.0312 L 2680.2832 -5163.5547 L 2394.2725 -5163.5547 z M 797.27051 -5162.0166 C 610.23369 -5172.3684 329.25076 -5167.3936 318.2959 -5154.3555 C 304.35838 -5136.3071 57.840363 -4709.4575 45.9375 -4681.416 C 36.006893 -4661.3815 50.101607 -4631.4276 157.74902 -4444.7998 C 225.15757 -4327.0329 291.54893 -4215.2659 303.61816 -4195.3076 L 327.74414 -4158.3936 L 610.75195 -4158.3643 L 893.75977 -4157.3535 L 1036.8896 -4405.8496 C 1115.4177 -4542.1225 1180.0219 -4659.3506 1180.0049 -4664.3506 C 1179.9839 -4670.3506 1117.5981 -4782.1325 1041.1377 -4914.8682 L 902.2998 -5155.3809 L 797.27051 -5162.0166 z M 12472.983 -4688.4912 L 12186.987 -4687.4951 L 11899.995 -4686.499 L 11754.858 -4435.9961 L 11610.718 -4185.4932 L 11752.588 -3935.9863 L 11895.454 -3687.4756 L 12185.449 -3687.4902 L 12475.459 -3688.4863 L 12617.607 -3932.9834 C 12695.139 -4068.2528 12758.75 -4181.4747 12758.73 -4186.4746 C 12758.72 -4190.4746 12694.309 -4305.2586 12615.835 -4441.9873 L 12472.983 -4688.4912 z M 8327.9736 -4684.126 L 8286.2256 -4611.9824 C 8262.3644 -4571.8995 8198.7471 -4462.668 8145.0732 -4368.4814 C 8090.396 -4275.2914 8045.6772 -4194.1445 8045.6982 -4188.1445 C 8045.7152 -4183.1445 8110.1082 -4067.3644 8188.5791 -3931.6357 L 8332.4414 -3684.1357 L 8548.4473 -3684.8828 C 8667.4464 -3685.2953 8795.4449 -3682.7336 8831.4551 -3679.8584 L 8896.4795 -3673.0908 L 9042.6123 -3926.5967 L 9189.7266 -4179.1064 L 9043.8574 -4430.6055 L 8897.9883 -4681.0937 L 8612.9736 -4683.1152 L 8327.9736 -4684.126 z M 10110 -4680.3027 L 9967.8516 -4434.8096 C 9857.5144 -4243.4262 9827.722 -4184.3224 9834.7705 -4170.3467 C 9839.8051 -4160.3641 9905.1934 -4045.5873 9979.6436 -3915.8447 L 10115.464 -3680.3125 L 10400.464 -3681.2939 L 10685.464 -3682.29 L 10827.612 -3927.7832 C 10905.144 -4063.0527 10968.741 -4178.2734 10968.721 -4185.2734 C 10968.701 -4192.2733 10905.3 -4306.0475 10828.843 -4437.7832 L 10689.009 -4677.2998 L 10400.01 -4679.3066 L 10110 -4680.3027 z M 6552.0264 -4667.9687 L 6412.8516 -4426.4893 C 6336.313 -4293.2233 6272.7004 -4180.9932 6270.7178 -4175.9863 C 6268.7351 -4170.9794 6332.1472 -4055.1994 6410.625 -3917.4707 L 6554.4873 -3667.9639 L 6841.4795 -3668.96 L 7128.4863 -3669.9561 L 7269.624 -3916.4453 L 7411.7725 -4162.9492 L 7390.6494 -4198.8672 C 7379.5801 -4218.829 7314.1849 -4332.6027 7245.7764 -4450.3662 L 7121.0303 -4664.9365 L 6836.0303 -4666.958 L 6552.0264 -4667.9687 z M 5343.0322 -4663.7793 L 5062.0313 -4662.7979 L 4782.0264 -4661.8311 L 4640.874 -4417.334 C 4563.3356 -4284.0645 4498.7454 -4168.8497 4496.7627 -4163.8428 C 4494.7835 -4157.8359 4557.1776 -4043.0515 4634.6484 -3907.3193 L 4775.4932 -3661.7969 L 4981.4941 -3662.5146 C 5094.4933 -3662.9062 5220.5036 -3660.3481 5261.5137 -3657.4902 L 5335.5322 -3651.748 L 5482.6465 -3908.2568 L 5630.7568 -4163.7695 L 5486.8945 -4414.2725 L 5343.0322 -4663.7793 z M 3008.042 -4655.6787 L 2993.1152 -4633.6328 C 2959.3027 -4579.5153 2727.7004 -4174.7106 2722.749 -4160.6934 C 2718.7837 -4150.6796 2768.1211 -4053.8536 2855.6543 -3900.1562 L 2995.5029 -3656.626 L 3280.5029 -3656.626 L 3566.499 -3657.6074 L 3708.6621 -3903.1006 C 3793.1555 -4049.3942 3848.7768 -4156.5924 3845.7422 -4166.582 C 3843.711 -4175.575 3780.3148 -4289.3566 3704.8682 -4418.0957 L 3568.0518 -4652.6172 L 3288.0469 -4654.6533 L 3008.042 -4655.6787 z M 1381.0547 -4650.0391 L 1220.0537 -4649.4824 L 1076.9092 -4401.9824 C 998.38112 -4265.7096 932.77714 -4151.4874 930.79102 -4147.4805 C 928.8049 -4143.4736 991.19073 -4030.6809 1069.6582 -3895.9521 L 1210.5029 -3652.4512 L 1493.5254 -3647.4268 C 1705.5377 -3644.1617 1778.5361 -3645.4123 1787.5049 -3654.4434 C 1804.4424 -3672.5022 2071.8468 -4135.4327 2071.8018 -4148.4326 C 2071.7808 -4154.4326 2009.3769 -4267.2145 1932.9199 -4398.9502 L 1794.0967 -4638.4814 L 1668.0762 -4644.0332 C 1599.0627 -4647.794 1470.054 -4650.3476 1381.0547 -4650.0391 z M 11003.804 -4163.3887 L 10864.644 -3919.917 C 10788.105 -3786.651 10725.507 -3672.4296 10725.527 -3665.4297 C 10725.547 -3658.4297 10788.949 -3543.6384 10866.416 -3408.9062 L 11007.261 -3163.3984 L 11296.245 -3167.3975 L 11584.248 -3170.4004 L 11727.393 -3416.9043 L 11869.541 -3663.3936 L 11726.675 -3911.9043 L 11582.813 -4160.4004 L 11292.803 -4161.3965 L 11003.804 -4163.3887 z M 9796.8018 -4159.2139 L 9507.8027 -4158.2031 L 9218.8037 -4157.207 L 9188.9941 -4105.1025 C 9173.0948 -4076.0473 9109.4743 -3964.8201 9046.8457 -3857.6025 L 8934.5215 -3662.2217 L 9079.3945 -3409.7119 L 9225.2783 -3157.2168 L 9511.2744 -3158.2129 L 9797.2705 -3159.209 L 9936.4307 -3401.6846 C 10012.973 -3533.9505 10076.574 -3648.1835 10078.55 -3655.1904 C 10079.529 -3661.1939 10017.124 -3776.9778 9939.6533 -3912.71 L 9796.8018 -4159.2139 z M 7731.8115 -4152.0508 L 7449.8145 -4151.0693 L 7381.2305 -4033.8379 C 7343.456 -3968.7067 7277.8404 -3856.48 7236.0938 -3783.335 L 7159.541 -3652.0703 L 7303.418 -3401.5674 L 7447.2803 -3151.0645 L 7728.2813 -3152.0312 L 8010.2783 -3153.0127 L 8154.4189 -3403.5156 L 8299.541 -3654.0186 L 8156.6748 -3903.5254 L 8013.8232 -4152.0361 L 7731.8115 -4152.0508 z M 5676.8115 -4149.9268 L 5609.209 -4034.6875 C 5454.1321 -3768.1486 5390.5284 -3654.9404 5390.5664 -3643.9404 C 5390.5874 -3637.9405 5453.9873 -3523.1525 5532.4512 -3389.4238 L 5674.292 -3144.9121 L 5955.293 -3147.8857 L 6236.2793 -3151.8701 L 6378.4277 -3397.3633 C 6455.9593 -3532.6327 6520.5609 -3646.8545 6520.5469 -3650.8545 C 6520.5329 -3654.8545 6457.1407 -3768.6248 6378.6768 -3902.3535 L 6237.832 -4145.8691 L 5956.8164 -4147.9053 L 5676.8115 -4149.9268 z M 4176.8408 -4137.7246 C 3955.8354 -4138.9585 3888.8487 -4135.7332 3881.8799 -4126.709 C 3871.9251 -4113.6744 3634.3494 -3703.8435 3612.4951 -3661.7676 C 3602.561 -3642.733 3619.6677 -3608.7904 3744.4189 -3392.2217 L 3888.2813 -3143.7256 L 4177.2803 -3144.7217 L 4466.2793 -3145.7324 L 4607.4316 -3391.2256 L 4749.5801 -3636.7187 L 4717.3975 -3691.6064 C 4700.2936 -3721.5473 4635.9056 -3834.3142 4573.5352 -3941.0986 L 4461.8555 -4135.7178 L 4176.8408 -4137.7246 z M 2675.8447 -4134.5312 L 2393.8477 -4133.5498 L 2111.8506 -4132.5684 L 1966.7139 -3881.0693 L 1820.5957 -3629.5557 L 1964.458 -3381.0596 L 2107.3096 -3132.5488 L 2396.3086 -3136.5479 L 2684.2969 -3139.5508 L 2825.4492 -3384.0479 L 2967.5977 -3628.5303 L 2821.7285 -3881.0254 L 2675.8447 -4134.5312 z M 8345.5664 -3646.1816 L 8211.3867 -3412.7148 C 8137.8309 -3284.4592 8072.2268 -3170.2224 8065.2686 -3158.1982 C 8055.3345 -3139.1637 8070.4415 -3108.2253 8198.2031 -2888.667 L 8342.0654 -2639.1602 L 8621.0742 -2637.124 L 8901.0791 -2634.0918 L 9047.2119 -2887.5977 C 9172.4554 -3106.0328 9191.3182 -3144.1114 9182.2559 -3162.0801 C 9176.2178 -3173.0592 9111.8298 -3285.8262 9038.3936 -3411.5723 L 8905.5908 -3641.1133 L 8625.5859 -3643.1494 L 8345.5664 -3646.1816 z M 10688.599 -3642.2998 L 10402.603 -3641.3037 L 10115.61 -3640.3076 L 9976.4355 -3398.8281 C 9899.8971 -3265.5622 9836.2845 -3153.3467 9834.3018 -3148.3398 C 9832.3191 -3143.3329 9895.7312 -3027.553 9974.209 -2889.8242 L 10118.071 -2640.3174 L 10405.063 -2641.3135 L 10693.066 -2642.3096 L 10836.211 -2890.8057 L 10980.352 -3138.3057 L 10957.207 -3178.2227 C 10945.131 -3200.1809 10879.739 -3313.9654 10812.334 -3430.7324 L 10688.599 -3642.2998 z M 6551.6455 -3623.96 C 6547.6663 -3617.9462 6483.0537 -3505.7263 6407.5049 -3375.4639 L 6271.3184 -3137.9834 L 6418.1982 -2883.4961 L 6566.0889 -2627.998 L 6848.0859 -2628.9795 L 7130.083 -2629.9609 L 7271.2354 -2874.4434 C 7348.7704 -3008.7127 7412.3794 -3123.9415 7412.3584 -3129.9414 C 7412.3204 -3140.9414 7145.688 -3609.0168 7132.6465 -3620.9717 C 7119.605 -3632.9265 6560.6073 -3634.991 6551.6455 -3623.96 z M 4990.6348 -3622.5537 L 4784.6338 -3621.8359 L 4640.5078 -3370.3369 L 4495.3711 -3119.834 L 4637.2266 -2873.3154 L 4780.0781 -2626.8115 L 4869.1113 -2619.1211 C 4919.1249 -2615.2944 5049.1292 -2613.7443 5158.125 -2615.1221 L 5358.1201 -2618.8135 L 5500.2686 -2865.3027 L 5642.4023 -3111.8066 L 5499.5508 -3361.3135 L 5355.6738 -3610.8203 L 5275.6494 -3617.5293 C 5231.6393 -3620.3768 5103.634 -3622.9454 4990.6348 -3622.5537 z M 3568.6377 -3617.6172 L 3285.6445 -3616.6357 L 3002.6514 -3615.6543 L 2857.5146 -3364.1553 L 2712.3779 -3113.6523 L 2856.2402 -2865.1416 L 2999.1064 -2615.6348 L 3288.1055 -2619.6338 L 3577.0898 -2622.6367 L 3719.2383 -2868.1299 L 3861.3867 -3113.6377 L 3842.2852 -3143.5645 C 3832.2298 -3159.5296 3766.8418 -3273.303 3696.416 -3396.0596 L 3568.6377 -3617.6172 z M 1212.6563 -3609.458 L 1080.4395 -3381.9971 C 1007.8767 -3255.7449 943.26065 -3144.5105 936.29883 -3133.4863 C 924.3613 -3115.4448 938.46908 -3086.4952 1067.2412 -2863.9404 L 1211.1035 -2614.4482 L 1500.1172 -2613.4375 L 1789.1162 -2611.4453 L 1928.2764 -2853.9355 C 2004.8183 -2986.2015 2068.4198 -3101.416 2070.3955 -3108.4229 C 2072.3712 -3115.4297 2009.9698 -3230.2145 1933.5059 -3363.9502 L 1793.6719 -3606.4697 L 1502.666 -3608.4619 L 1212.6563 -3609.458 z M 9227.373 -3127.2314 L 9085.2246 -2880.7422 C 8977.8701 -2694.3691 8944.1025 -2629.2403 8951.1475 -2616.2646 C 8955.1821 -2606.2786 9020.567 -2493.5117 9094.0137 -2364.7656 L 9229.834 -2130.2295 L 9508.8574 -2123.1982 C 9737.8766 -2117.992 9790.8683 -2119.1803 9800.8301 -2130.2148 C 9813.778 -2145.2597 10058.327 -2565.1103 10075.195 -2603.1689 C 10084.126 -2623.2 10065.995 -2660.1383 9941.25 -2874.707 L 9797.3877 -3124.1992 L 9512.3877 -3125.2246 L 9227.373 -3127.2314 z M 8018.4229 -3113.0371 L 7735.415 -3112.0557 L 7453.418 -3111.0742 L 7382.8418 -2990.8398 C 7306.2999 -2858.5739 7173.0938 -2628.1091 7168.125 -2619.0918 C 7166.1354 -2616.0849 7229.5286 -2501.304 7308.0029 -2364.5752 L 7451.8652 -2116.0645 L 7740.8643 -2117.0752 L 8029.8633 -2118.0713 L 8171.0303 -2360.5615 L 8312.1826 -2604.0479 L 8165.3027 -2858.5498 L 8018.4229 -3113.0371 z M 6240.4248 -3106.8701 L 5961.4307 -3105.9033 C 5683.4325 -3104.9397 5682.4295 -3104.939 5668.5059 -3082.8906 C 5635.6898 -3029.7766 5404.0945 -2623.9826 5398.1396 -2610.9619 C 5395.1744 -2600.9516 5447.5244 -2500.1269 5530.0195 -2357.4121 C 5605.4731 -2226.673 5670.8533 -2116.89 5673.8672 -2112.9004 C 5677.881 -2108.9143 5806.9044 -2105.3646 5960.9033 -2105.8984 L 6240.8936 -2105.8691 L 6382.0605 -2349.3701 C 6460.5956 -2483.6431 6524.2007 -2597.8574 6524.1797 -2603.8574 C 6524.1557 -2610.8573 6460.7512 -2725.6336 6382.2803 -2861.3623 L 6240.4248 -3106.8701 z M 4181.4404 -3099.7363 L 3894.4482 -3098.7402 L 3758.2617 -2863.2666 C 3683.7128 -2733.0075 3620.1074 -2618.7857 3617.1387 -2609.7754 C 3615.1733 -2599.7685 3671.5517 -2489.9652 3755.0537 -2345.2539 L 3897.9053 -2098.75 L 4183.9014 -2101.7383 L 4468.8867 -2105.7373 L 4612.0313 -2353.2227 L 4755.1758 -2599.7266 L 4611.3135 -2850.2295 L 4467.4512 -3099.7363 L 4181.4404 -3099.7363 z M 2107.4561 -3092.5586 L 1966.3037 -2847.0654 C 1887.7687 -2712.7926 1824.1676 -2597.5635 1824.1846 -2592.5635 C 1824.2016 -2587.5635 1887.5984 -2473.7902 1966.0693 -2338.0615 L 2107.9248 -2092.5537 L 2395.9131 -2093.5498 L 2683.916 -2094.5459 L 2816.1328 -2323.0029 C 2888.699 -2448.2551 2953.3115 -2559.4787 2960.2734 -2570.5029 C 2972.2074 -2589.5444 2960.1061 -2615.4975 2830.3271 -2840.0488 L 2686.4648 -3089.5557 L 2396.4697 -3090.5518 L 2107.4561 -3092.5586 z M 8911.2158 -2596.1377 L 8630.2148 -2595.1562 L 8348.2178 -2594.1748 L 8207.0654 -2349.6924 C 8129.5305 -2215.423 8065.929 -2099.1913 8065.957 -2091.1914 C 8066.9812 -2084.1949 8129.3779 -1970.4173 8205.835 -1838.6816 L 8345.6689 -1599.165 L 8633.6719 -1600.1611 L 8922.6709 -1601.1719 L 9062.8271 -1844.6582 L 9203.9795 -2088.1445 L 9058.0957 -2341.6357 L 8911.2158 -2596.1377 z M 6857.2266 -2589.0186 C 6575.2285 -2588.0411 6574.2264 -2588.0249 6560.3027 -2565.9766 C 6529.4763 -2515.8694 6295.8875 -2108.0611 6290.9326 -2095.0439 C 6287.9603 -2087.0336 6349.37 -1970.2536 6426.8408 -1834.5215 L 6569.6924 -1588.0029 L 6851.6895 -1588.9844 L 7133.6865 -1589.9658 L 7273.8428 -1833.4521 C 7351.3812 -1966.7216 7415.9896 -2080.9511 7417.9688 -2086.958 C 7419.9479 -2092.9649 7357.5539 -2207.7493 7280.083 -2343.4814 L 7139.2236 -2588.9893 L 6857.2266 -2589.0186 z M 5359.2334 -2583.8184 L 5073.2373 -2582.8223 L 4787.2412 -2581.8408 L 4646.0889 -2336.3477 C 4567.5538 -2202.0748 4505.9557 -2085.8543 4507.9834 -2077.8613 C 4510.0077 -2070.8683 4574.4038 -1956.095 4650.8643 -1823.3594 L 4790.7129 -1581.8359 L 5075.6982 -1584.8242 L 5359.6875 -1588.8086 L 5502.832 -1836.3086 L 5645.9766 -2083.8086 L 5503.1104 -2334.3115 L 5359.2334 -2583.8184 z M 3006.2549 -2575.6592 L 2888.9502 -2373.2617 C 2824.3389 -2261.0372 2759.734 -2148.8107 2744.8242 -2122.7588 L 2717.9736 -2076.6602 L 2860.8398 -1828.1494 L 3004.7021 -1580.6494 L 3293.7012 -1579.6533 L 3582.7148 -1577.6611 L 3724.8633 -1824.1504 L 3867.0117 -2070.6396 L 3723.1348 -2322.1533 L 3578.2617 -2572.6416 L 3292.251 -2574.6484 L 3006.2549 -2575.6592 z M 9240.0146 -2077.2607 L 9098.8623 -1832.7783 C 9021.3308 -1697.509 8957.7404 -1581.2885 8958.7646 -1574.292 C 8958.7886 -1567.2921 9021.1749 -1453.5032 9097.6318 -1321.7676 L 9236.4697 -1082.251 L 9525.4688 -1083.2471 L 9814.4678 -1084.2578 L 9955.6055 -1329.7363 C 10034.141 -1464.0093 10097.75 -1579.2379 10096.729 -1585.2344 C 10096.709 -1590.2344 10034.319 -1703.0202 9957.8613 -1834.7559 L 9819.0234 -2074.2725 L 9529.0283 -2076.2646 L 9240.0146 -2077.2607 z M 8031.0205 -2073.0713 L 7744.0283 -2072.0752 C 7457.0303 -2071.0804 7456.033 -2071.0816 7442.1094 -2049.0332 C 7434.1545 -2036.0056 7369.5385 -1924.7858 7297.9688 -1800.5371 C 7180.6698 -1598.1295 7169.7448 -1574.0936 7180.8105 -1555.1318 C 7187.8485 -1544.1561 7254.2507 -1430.3789 7327.6904 -1303.6328 L 7461.4893 -1071.1035 L 7743.4863 -1072.0703 L 8025.4834 -1073.0518 L 8166.6504 -1317.5488 C 8243.1854 -1451.8148 8307.7829 -1566.0331 8309.7656 -1571.04 C 8311.7448 -1577.0469 8249.3507 -1691.8313 8171.8799 -1827.5635 L 8031.0205 -2073.0713 z M 5679.0381 -2064.9268 L 5534.8975 -1815.4199 L 5389.7754 -1564.917 L 5532.627 -1317.417 L 5675.4932 -1069.9023 L 5963.4814 -1070.8984 L 6251.4844 -1071.9092 L 6370.7666 -1277.3242 C 6435.3745 -1390.5487 6499.9949 -1500.7686 6512.915 -1523.8135 L 6536.7773 -1564.8877 L 6393.9111 -1813.3984 L 6250.0488 -2061.9092 L 5965.0488 -2063.916 L 5679.0381 -2064.9268 z M 3901.0547 -2058.7598 L 3761.8945 -1816.2842 C 3685.3561 -1683.0182 3621.7511 -1568.7891 3619.7754 -1561.7822 C 3617.7997 -1554.7753 3680.1865 -1439.9905 3756.6504 -1306.2549 L 3896.499 -1063.7354 L 4180.5029 -1062.7246 L 4464.5068 -1060.7031 L 4609.6436 -1313.2129 L 4754.7656 -1565.7227 L 4612.9102 -1810.2344 L 4471.0693 -2055.7422 L 4186.0547 -2056.7529 L 3901.0547 -2058.7598 z M 2691.0498 -2054.5703 L 2401.0547 -2053.5596 L 2111.0596 -2052.5635 L 1976.8652 -1821.0889 C 1903.3094 -1692.8332 1838.7006 -1580.6179 1833.7354 -1570.6006 C 1827.7805 -1557.5799 1858.9934 -1494.6788 1969.6582 -1303.0615 L 2113.5205 -1052.5586 L 2400.5273 -1053.5547 L 2687.5195 -1054.5508 L 2832.6563 -1305.0537 L 2977.793 -1555.5566 L 2833.916 -1805.0635 L 2691.0498 -2054.5703 z M 10131.812 -1560.3613 L 9990.6592 -1315.8643 C 9913.1242 -1181.5949 9849.5191 -1066.3768 9849.5361 -1061.377 C 9849.5531 -1056.377 9912.9501 -941.59294 9991.4209 -805.86426 L 10133.276 -560.35645 L 10420.283 -561.35254 L 10708.271 -562.34863 L 10852.412 -812.85156 L 10996.553 -1062.3437 L 10854.683 -1309.8584 L 10711.831 -1557.373 L 10421.821 -1559.3652 L 10131.812 -1560.3613 z M 8639.8096 -1557.1826 C 8397.8009 -1559.3438 8354.8073 -1557.198 8343.8525 -1544.1602 C 8331.8977 -1531.1187 8101.2787 -1134.3121 8070.4834 -1075.2051 C 8059.5528 -1055.1671 8073.6429 -1028.2217 8202.4219 -803.66699 L 8346.2842 -554.16016 L 8632.2949 -555.15625 L 8917.2803 -556.1377 L 9060.4248 -803.6377 C 9138.9529 -939.91057 9202.5503 -1056.1388 9202.5293 -1062.1387 C 9202.5123 -1067.1387 9140.1264 -1180.9202 9062.666 -1313.6523 L 8922.8174 -1555.1611 L 8639.8096 -1557.1826 z M 7142.8418 -1548.9941 L 6855.835 -1547.998 L 6569.8389 -1548.0127 L 6487.3242 -1405.7178 C 6442.5984 -1326.5624 6376.997 -1214.343 6343.1982 -1156.2256 L 6281.5576 -1050.0098 L 6425.4199 -801.49902 L 6568.2861 -553.00293 L 6857.2998 -550.99609 L 7146.2988 -550 L 7285.459 -791.47949 C 7361.9974 -924.74546 7424.6108 -1038.9707 7424.5898 -1044.9707 C 7424.5658 -1051.9706 7361.1539 -1167.7434 7283.6865 -1302.4756 L 7142.8418 -1548.9941 z M 5362.8369 -1543.8232 L 5077.8369 -1542.8418 L 4792.8516 -1541.8457 L 4648.7109 -1290.3467 C 4569.1898 -1152.0704 4505.5999 -1034.8466 4507.6172 -1029.8535 C 4511.6761 -1012.8675 4764.1809 -577.74769 4779.2432 -559.7998 C 4792.2951 -544.84497 4823.3045 -542.94489 5075.3027 -543.81836 L 5356.3037 -543.80371 L 5499.4482 -793.2959 C 5578.9729 -930.57223 5643.5696 -1044.7979 5643.5596 -1047.7979 C 5644.5492 -1050.8012 5581.1637 -1163.5833 5503.6963 -1298.3154 L 5362.8369 -1543.8232 z M 3582.8467 -1537.6562 L 3295.8545 -1536.6602 L 3008.8623 -1535.6641 L 2955.1758 -1443.4814 C 2925.3527 -1392.3778 2859.7519 -1279.1551 2810.0537 -1191.9824 L 2718.5889 -1033.6621 L 2862.4512 -785.15137 L 3006.3281 -535.64453 L 3296.3232 -537.65137 L 3586.3184 -538.66211 L 3710.5664 -755.09277 C 3779.1534 -874.3311 3843.7699 -986.55431 3853.7109 -1003.5889 L 3872.5928 -1036.6504 L 3727.7197 -1287.1533 L 3582.8467 -1537.6562 z M 9244.5703 -1050.2734 L 9101.4404 -800.78125 C 9022.9158 -663.50839 8956.3123 -548.27936 8954.3262 -544.27246 C 8951.347 -538.2621 9156.6182 -172.97039 9219.9609 -74.189453 L 9243.0908 -37.260742 L 9530.083 -40.263672 L 9816.0645 -44.248047 L 9959.209 -291.74805 L 10103.35 -540.24414 L 9959.4873 -789.75098 L 9815.625 -1039.2578 L 9654.624 -1038.7012 C 9566.6247 -1038.3962 9438.6046 -1040.9501 9369.5947 -1043.7109 L 9244.5703 -1050.2734 z M 5842.6025 -1035.4785 L 5681.6016 -1034.9219 L 5536.4795 -784.41895 C 5456.9549 -647.14261 5391.3581 -530.91403 5391.3721 -526.91406 C 5391.3891 -521.9141 5454.7676 -411.13852 5530.2246 -279.39941 L 5669.0625 -39.882812 L 5789.0771 -34.287109 C 5854.0905 -30.512437 5985.0949 -27.970513 6080.0977 -27.299805 L 6251.1035 -26.889648 L 6396.2402 -278.40332 L 6541.3623 -529.90234 L 6398.5107 -777.41699 L 6255.6445 -1023.9209 L 6129.624 -1030.4834 C 6060.6141 -1033.2442 5931.602 -1035.787 5842.6025 -1035.4785 z "
       transform="scale(1,-1)" />
  </g>
</svg>
