<?xml version="1.0" encoding="UTF-8" standalone="no"?>
<svg
   version="1.0"
   width="1280.000000pt"
   height="886.000000pt"
   viewBox="0 0 1280.000000 886.000000"
   preserveAspectRatio="xMidYMid meet"
   style="  -webkit-filter: drop-shadow(2px 2px 2px rgba(0, 0, 0, 0.4));   filter: drop-shadow(2px 2px 2px rgba(0, 0, 0, 0.4));"
   id="svg6"
   sodipodi:docname="download.svg"
   inkscape:version="1.2.2 (732a01da63, 2022-12-09)"
   xmlns:inkscape="http://www.inkscape.org/namespaces/inkscape"
   xmlns:sodipodi="http://sodipodi.sourceforge.net/DTD/sodipodi-0.dtd"
   xmlns="http://www.w3.org/2000/svg"
   xmlns:svg="http://www.w3.org/2000/svg">
  <defs
     id="defs10" />
  <sodipodi:namedview
     id="namedview8"
     pagecolor="#ffffff"
     bordercolor="#000000"
     borderopacity="0.25"
     inkscape:showpageshadow="2"
     inkscape:pageopacity="0.0"
     inkscape:pagecheckerboard="0"
     inkscape:deskcolor="#d1d1d1"
     inkscape:document-units="pt"
     showgrid="false"
     inkscape:zoom="0.39954853"
     inkscape:cx="1406.5876"
     inkscape:cy="553.12429"
     inkscape:window-width="1440"
     inkscape:window-height="847"
     inkscape:window-x="-8"
     inkscape:window-y="-8"
     inkscape:window-maximized="1"
     inkscape:current-layer="g4" />
  <g
     transform="matrix(0.1,0,0,-0.1,0,886)"
     fill="#000000"
     stroke="none"
     id="g4">
    <path
       id="rect227"
       style="fill:#d40000;stroke-width:7.45202"
       d="M 0,8859.9985 V 4799.5701 c 22.203829,43.3985 48.838686,95.1399 111.04402,201.4519 l 151.42765,258.3331 297.66331,5.9845 297.67791,5.9844 148.45241,256.3578 149.4297,257.3309 280.7748,-2.0045 c 239.9517,-2.1464 282.7565,-1.0066 294.6589,11.9253 7.9373,7.9603 75.2511,121.2453 150.4652,251.4047 l 136.5809,236.4725 -24.0494,42.5448 c -13.0223,22.7618 -78.1272,136.578 -144.2376,251.3755 l -120.2029,208.8163 -298.6988,1.9464 -297.6924,1.9464 -153.25072,264.216 -153.25066,264.2304 151.41306,261.3254 151.42762,261.3109 298.6697,4.0091 297.6778,3.9944 148.4526,257.3455 148.4378,258.3186 305.6554,1.0604 304.6491,1.0458 149.2401,-256.2997 148.2484,-257.3163 297.6924,-1.9464 297.707,-1.9464 143.2313,-247.3957 143.2313,-247.41 97.5975,-5.6214 c 53.7765,-3.7808 181.2174,-6.302 282.7729,-6.9431 l 186.1818,-0.3486 148.4524,256.3432 148.4525,255.3556 291.7129,3.9798 292.6901,2.9923 148.4526,258.3332 148.4379,257.3309 297.6778,4.009 297.6779,3.9945 148.4525,256.3432 128.0491,220.2478 z m 6466.4257,0 -140.3729,-242.9655 -143.4938,-249.3855 141.2332,-244.4325 142.2251,-244.4469 283.7791,-5.9554 c 256.8907,-6.0544 283.7737,-4.9764 294.6736,9.9353 25.7684,33.8034 280.095,477.9322 280.0602,487.8481 -0.017,4.958 -64.1348,119.7656 -141.2624,253.3655 l -137.8936,236.0369 z m 617.8592,0 126.7949,-220.0735 148.2483,-257.3019 297.6925,-0.9586 297.7071,-1.9464 152.2443,-263.2428 152.2443,-262.2551 -147.4607,-252.3778 c -80.1611,-139.1009 -146.4643,-255.3439 -146.4544,-258.3186 0.01,-2.9747 65.1084,-115.7954 144.2376,-252.3634 l 143.2459,-247.3956 297.6926,-1.9463 297.6924,-0.9587 137.558,238.4626 c 75.2142,130.1595 142.5246,245.4083 148.4671,254.3531 10.8999,14.9118 39.7615,16.0083 316.5645,10.0226 l 304.6783,-5.8973 152.2443,-262.2405 151.2521,-261.2672 -151.4125,-262.2987 -151.413,-263.3009 -308.6453,-1.0604 -308.6307,-2.0626 -123.703,-214.6119 c -68.2862,-118.2364 -131.6276,-228.5287 -141.5249,-245.4201 l -17.8074,-30.7938 141.2333,-245.4347 142.225,-244.4325 294.7027,1.0168 295.6945,1.0168 148.2483,-256.3141 148.234,-255.312 120.494,-5.5341 c 66.719,-3.7361 195.163,-6.2681 285.763,-5.9554 l 165.268,0.5665 148.452,258.3332 148.438,257.331 308.645,2.0625 308.631,1.0604 150.246,-257.302 150.233,-257.2873 294.702,1.0168 294.703,1.0168 152.244,-263.2428 c 84.134,-144.4834 150.278,-268.2021 147.315,-275.1535 -1.97,-5.9564 -71.249,-125.1987 -152.406,-264.3031 l -147.46,-253.3656 -293.725,2.9632 -292.72,2.9486 -149.444,-257.3454 -148.452,-257.331 -294.689,-3.9944 -293.696,-2.9923 -150.436,-258.3331 -150.436,-258.3477 -294.703,-1.0168 -295.694,-1.0168 -133.6055,-229.515 c -73.233,-127.1777 -137.559,-237.4697 -141.5104,-246.4079 -5.9288,-12.9113 31.1484,-85.1695 139.3228,-271.2171 l 147.2421,-254.3387 185.19,-0.3487 c 101.555,-0.641 235.975,-3.1496 298.713,-6.8995 l 114.516,-5.5632 147.241,-252.3488 c 81.127,-138.5441 148.243,-258.2915 148.263,-265.2326 1.016,-5.9461 -66.264,-128.1435 -149.401,-270.22954 l -149.429,-258.3332 -294.703,-1.01678 -295.694,-1.03129 -148.4525,-255.35551 -148.4524,-256.34322 -308.6307,-4.03805 -307.6389,-3.05031 -148.2483,257.31641 -148.2483,257.3019 -296.6861,-1.0313 -295.6945,-1.01677 -148.2483,257.3019 -149.24,257.30196 -279.7685,-0.9587 -279.7685,-1.961 -148.4379,-257.33091 -148.4525,-258.3332 -295.6944,-1.01677 -294.7028,-1.01677 -150.4212,-258.34772 -150.436,-258.3332 -305.6555,-1.06035 -305.6554,-1.04583 -148.2484,257.30191 -149.2399,257.30189 -295.6945,-1.01678 -295.6945,-1.0313 -144.2376,249.38559 -145.2439,250.38794 -277.7997,6.972 c -266.8503,7.0117 -278.7953,6.9626 -293.6672,-10.9375 -7.9269,-10.935 -77.2084,-127.18936 -153.4111,-259.33547 l -138.5644,-240.45249 -308.6306,-1.06036 -309.6369,-1.06035 -148.2484,257.3019 -149.24,257.30197 -294.7027,-1.0168 -295.6944,-1.0313 -153.2508,263.2427 -153.236,263.2428 64.3309,110.2909 c 35.6278,61.6022 101.9243,176.8579 147.4462,256.3432 l 84.1361,144.0623 -146.2357,252.3634 -146.2356,251.361 -297.7071,3.9219 -296.7154,3.9363 -150.23166,257.3018 c -82.13327,141.5157 -147.27703,264.247 -145.31687,273.1782 1.96014,8.9312 67.27258,124.1791 144.47103,256.3287 76.2028,132.146 139.5292,244.413 139.5123,249.371 -0.014,3.9664 -63.1358,116.802 -141.26237,251.3901 l -141.23337,243.4448 -294.68815,-1.0168 -295.69445,-1.0314 -150.24633,258.2897 C 52.174431,4569.1324 23.252006,4622.4379 0,4665.4866 V 0.0050481 H 12783.173 V 8859.9985 Z m 845.635,-505.1623 -281.7665,-0.9733 c -213.0599,-0.7355 -283.7247,-3.9502 -290.6629,-12.8985 -13.8764,-17.8967 -259.3274,-441.1665 -272.1702,-469.9674 -8.888,-20.8543 4.154,-48.5821 121.3405,-249.4728 72.1186,-124.6927 136.2164,-233.5422 143.2167,-242.4424 10.9966,-12.8527 53.8138,-15.6788 296.7591,-19.7981 l 284.7709,-4.9676 141.5249,245.4202 c 78.1838,135.1277 142.49,250.3684 142.473,255.3264 -0.021,5.9496 -64.1386,119.7612 -142.2688,255.341 z m -2352.6193,-9.1075 -140.5334,-244.4179 -141.5104,-245.4201 144.2231,-247.3956 145.2294,-248.3979 285.748,0.9877 285.7334,0.9877 141.525,245.4057 142.5167,244.4324 -143.2313,246.4224 -142.2397,245.4201 -288.7231,0.9878 z m -3534.4203,-9.2235 -138.5497,-240.4526 c -76.1994,-133.1376 -139.5288,-247.3906 -141.4958,-254.3387 -2.9385,-13.8925 246.5272,-457.2691 276.5162,-491.8716 13.9938,-15.8173 37.8867,-16.7272 294.7465,-13.8572 l 279.754,3.9364 144.5001,248.3978 145.4919,248.4124 -29.0518,49.4734 c -16.0229,26.7179 -80.1245,137.5538 -142.225,244.4324 l -112.1962,195.9613 -104.5394,-0.3631 c -57.7452,-0.1993 -187.1756,2.3289 -288.7379,4.9532 z m 4999.7521,-500.369 -284.7417,-0.9732 -285.7335,-0.9877 -135.5892,-233.4949 c -74.222,-129.1644 -137.5483,-242.4263 -140.5041,-251.361 -1.9567,-9.9227 54.1743,-118.8034 137.3102,-262.2986 l 142.225,-244.4325 284.7417,0.9733 285.7481,0.9877 138.5497,239.4502 c 76.2062,131.1545 138.53,245.4077 138.5061,252.3488 -0.028,7.9327 -63.1432,122.7432 -140.2708,256.3432 z m -2343.6648,-8.0906 -41.5648,-71.5373 c -98.9638,-171.8888 -209.8094,-362.6546 -227.6301,-391.4725 l -17.8073,-29.806 142.225,-247.4101 143.2313,-246.4225 287.7462,-0.9876 288.7377,-1.9755 141.5104,245.4202 141.5249,244.4178 -144.223,248.398 -144.2376,248.3832 -284.7563,2.0045 z m -1760.2387,-3.0939 -54.4282,-93.398 c -178.1498,-305.0368 -235.5517,-405.3829 -235.5348,-410.3409 0.028,-7.9327 231.406,-409.7293 266.4387,-463.155 l 24.0347,-36.6039 275.7725,2.9341 275.7725,2.9342 136.5808,233.4948 c 74.2253,128.1728 140.5329,242.4447 147.4608,254.3679 8.8948,18.8711 -7.1408,51.5388 -128.3409,261.3399 l -139.2353,240.4671 -284.7563,3.9798 z m -1784.1278,-9.1365 -68.2831,-116.2463 C 1048.7093,7634.985 983.38527,7522.7026 940.8261,7450.1688 l -76.2024,-131.1493 143.2314,-247.4101 144.2376,-247.4102 288.7231,1.0023 288.7232,1.99 135.5747,236.4725 c 75.2175,129.1679 137.545,242.4157 140.5041,250.3588 2.9593,7.943 -59.1723,122.7611 -137.2956,256.3578 l -142.225,242.457 -285.748,1.9754 z m 4436.2335,-500.3109 -138.5497,-239.4647 c -76.2028,-132.1461 -139.5289,-245.4007 -141.4959,-252.3487 -1.9637,-7.9396 60.1606,-121.7705 136.2892,-254.3823 l 139.2353,-240.4671 287.7315,-0.9877 287.7461,-1.99 141.5249,244.418 141.5251,244.4324 -143.246,249.3856 -144.2376,248.3978 -282.7583,1.99 z m 2262.0516,-1.1184 c -175.2717,12.2857 -481.8968,8.2479 -491.808,-4.6771 -13.8764,-17.8968 -259.3243,-441.1634 -271.1784,-467.9774 -8.8914,-19.8627 9.1569,-55.5082 130.3534,-264.3178 l 141.2187,-242.4424 72.7023,-5.7085 c 38.8425,-3.8323 168.2921,-6.357 285.7771,-6.943 l 214.0522,-0.2469 146.469,252.3632 145.4772,252.3778 -140.2123,240.467 -140.227,241.4693 z m -3747.4951,-4.0235 -280.7603,-0.9586 -53.451,-91.4226 c -29.6923,-50.6741 -95.0055,-162.9455 -144.4856,-249.3855 l -91.0491,-156.9899 143.2315,-246.4079 143.2313,-247.4101 279.7684,0.9731 280.7603,0.9587 144.5001,248.3978 143.4939,249.4002 -142.2396,246.4079 -142.2396,246.4225 z m 5630.2412,-0.3921 -290.7213,-1.0024 -289.7296,-1.0022 -133.6057,-229.5149 c -73.2332,-127.1777 -137.5586,-238.4648 -142.5021,-248.3979 -5.9288,-12.9113 25.1473,-75.2691 135.3267,-265.2762 l 143.2459,-248.3979 289.7149,1.0022 288.7233,1.99 123.703,214.6119 c 68.2866,118.2364 132.6232,229.5127 142.5166,247.3957 l 18.799,32.7836 -143.2311,247.4102 z m -7121.6643,-4.7498 -283.7499,-0.9733 -283.7354,-0.9877 -142.5167,-245.4202 c -79.1792,-135.1311 -142.5085,-250.3645 -142.4876,-256.3141 0.017,-4.9579 62.1437,-117.7979 139.2645,-249.4146 l 138.2289,-240.4816 290.7213,1.0023 289.7149,1.0022 141.5396,243.4302 c 109.8533,189.7751 139.5148,248.3823 132.4974,262.2405 -5.0125,9.8987 -70.1288,123.711 -144.2522,252.3632 z m 5644.9129,-496.1421 -145.4919,-250.3879 -144.4855,-249.4001 141.2333,-246.4079 141.2333,-245.4347 290.7212,1.0023 289.7149,1.0022 142.5313,244.4179 c 124.6977,215.608 140.5064,247.4002 130.4848,266.206 -7.0072,10.8834 -71.1089,123.7085 -144.2231,248.3979 l -132.2202,227.6121 -284.7564,1.9899 z m -1209.671,-4.1834 -285.7335,-0.9877 -284.7563,-0.9732 -138.5498,-239.4648 c -76.2028,-132.146 -139.5365,-243.4184 -141.5104,-248.3832 -1.974,-4.9649 61.1599,-119.772 139.2936,-256.3433 l 143.2314,-247.4101 284.7417,0.9877 283.75,0.9731 133.6057,229.5295 c 73.2332,127.1778 137.5586,238.4502 142.5022,248.3834 6.9209,13.9063 -23.1497,73.3001 -134.3351,266.2786 z m -1775.173,-6.1296 -285.7334,-0.9877 -285.7481,-0.9733 -70.2666,-119.2385 c -37.6053,-65.5755 -99.9601,-172.8874 -138.5644,-237.4748 -37.6053,-65.5755 -69.2627,-124.1868 -69.2458,-129.1448 0.021,-5.9494 64.1494,-122.7424 143.2751,-258.3187 l 142.2396,-247.4101 283.75,0.9877 283.7499,1.9609 80.1547,141.0847 c 44.5332,77.4986 108.8518,188.7788 142.5022,246.4079 l 60.364,106.3109 -143.2313,248.3979 z m -2302.8291,-11.9108 c -32.8792,6.8277 -8.1053,42.6129 -229.803,-336.9443 l -91.0491,-156.99 144.2376,-249.3856 144.2377,-249.3855 284.7417,-1.9899 284.7562,-1.0024 139.5416,241.4403 c 76.1993,133.1376 139.5292,246.4032 139.5123,251.3611 -0.014,3.9664 -64.1313,118.7739 -141.2623,253.3655 l -141.2334,245.4202 -251.8981,-0.8716 c -138.3894,-0.4777 -264.8455,2.0659 -281.7812,4.9822 z m 4964.8958,-494.5298 -284.7417,-0.9877 -284.7417,-1.961 -138.5498,-240.4524 c -76.2029,-132.1461 -138.53,-245.4077 -138.5062,-252.3487 0.021,-5.9496 63.1432,-120.7533 140.2708,-254.3533 l 140.227,-243.4447 282.7437,2.9486 281.752,3.9509 143.5085,247.4101 c 107.8724,186.7935 141.4878,252.3448 134.4807,263.2282 -5.0091,8.9072 -69.1145,119.7534 -143.2313,246.4225 z m -1774.1813,-6.1297 -283.75,-0.9732 -283.7354,-0.9732 -138.5498,-240.4525 c -76.2062,-131.1545 -140.5321,-243.4219 -141.5104,-248.3833 -1.974,-4.9649 60.1425,-119.7759 138.2727,-255.3555 l 142.2396,-247.4102 286.7398,0.9878 286.7397,0.9877 129.6534,221.5695 c 70.2637,122.2096 133.5977,233.4894 140.5187,247.3957 9.8732,23.8325 0.8358,44.6322 -132.3806,274.2239 z m -2320.7675,-5.0256 -20.8117,-28.8329 c -13.866,-20.8716 -233.5882,-396.4488 -276.137,-471.9574 -0.9852,-2.9783 62.1371,-115.8066 140.2708,-252.3778 l 144.223,-246.4079 277.785,-2.019 278.7768,-1.0314 141.5251,245.4202 c 78.1801,136.1193 143.4998,249.3923 145.4772,253.3655 0.9852,2.9781 -60.1495,115.8035 -138.2727,249.4002 l -141.2187,243.4447 -106.5376,-0.3632 c -57.7452,-0.1993 -182.2007,2.3411 -275.8016,5.9845 z m -1220.6092,-7.1902 -285.7335,-0.9877 -284.7417,-0.9877 -142.5167,-244.418 -141.525,-244.4324 23.043,-41.557 c 13.0258,-23.7534 78.1272,-135.5903 144.2376,-250.3878 l 120.2029,-207.8141 278.7915,-4.9967 c 213.0771,-4.2225 280.7744,-2.9893 289.7002,6.9576 12.8947,13.927 268.2187,455.0754 277.0996,477.9128 3.948,9.9296 -48.17,109.907 -136.3183,263.3008 z m 6204.4353,-494.2102 -285.7335,-0.9877 -284.7564,-0.9877 -138.5497,-240.4526 c -76.2062,-131.1544 -139.5211,-246.3952 -141.4813,-255.3264 -0.9645,-8.9277 60.1637,-122.7549 137.281,-253.3801 l 139.2207,-237.5039 285.7334,0.9878 285.748,0.9877 138.5499,238.4625 c 76.2062,131.1546 140.5312,243.4364 143.4939,250.3879 1.9705,5.9564 -59.1579,120.7713 -137.2811,254.3677 z m -1774.1668,-6.1297 -281.7665,-0.9731 -280.7602,-0.9734 -53.4365,-91.4079 c -29.6923,-50.6742 -95.02,-162.9453 -144.5002,-249.3855 l -92.0408,-157.0045 143.2313,-247.3956 144.2231,-246.4224 278.7768,0.9732 278.7622,1.9464 143.4938,249.3856 c 79.1724,137.1143 142.498,253.3531 140.4895,258.3041 -1.0128,4.9546 -64.1238,114.8027 -139.2498,245.4348 z m -1770.1998,-6.1152 -280.7603,-0.9731 -279.7684,-0.9587 -143.4939,-247.4102 c -79.1723,-137.1142 -142.4975,-251.364 -142.4875,-254.3387 1.0059,-2.9714 64.113,-114.7983 140.2415,-247.4101 l 139.2353,-241.4694 283.7499,0.9733 283.7501,0.9732 80.1548,141.0846 c 44.533,77.4987 108.855,188.7895 142.5019,247.4101 l 62.3475,107.2987 -143.2313,247.4102 z m -1772.1832,-6.1151 -281.752,-0.9732 c -213.0599,-0.7356 -283.7394,-3.9501 -290.6775,-12.8985 -4.9539,-6.9583 -70.2743,-118.2422 -145.4918,-247.4102 l -134.5975,-234.4825 143.2313,-246.4224 143.2314,-246.4079 287.7314,0.9877 287.7315,0.9878 140.5333,243.4301 141.5249,243.4301 -18.0261,29.6899 c -11.0069,15.8276 -76.104,128.6483 -146.221,250.3733 z m -2337.6561,-17.9823 -22.7658,-36.7783 c -11.875,-20.8646 -76.2114,-131.1532 -142.5169,-246.4079 l -120.72784,-208.6419 23.02845,-39.5961 c 13.01881,-21.7704 78.13449,-134.5877 145.24389,-250.3733 l 123.1927,-209.7896 284.7271,2.9632 284.7417,3.9654 140.5334,243.4157 141.5249,243.4302 -34.0687,59.3796 c -18.0348,32.6606 -82.1442,144.4911 -142.2396,247.4102 l -109.1773,188.0305 -285.748,1.9899 z m 10322.238,-470.0837 -285.735,-0.9877 c -216.045,-0.7458 -287.721,-3.9647 -294.659,-12.9131 -9.911,-12.9251 -246.454,-420.3107 -269.209,-462.0365 -9.887,-19.8662 4.159,-48.5644 131.375,-270.244 l 143.23,-247.4101 287.718,3.9654 287.731,2.9777 142.517,245.4201 142.502,246.4079 -142.239,247.4101 z m -4105.9312,-1.2928 -24.7493,-38.7536 c -13.8627,-21.863 -81.1726,-136.1313 -149.4588,-254.3677 l -124.6949,-215.5998 140.227,-241.4692 141.2188,-241.4692 273.8181,-6.9867 c 226.0236,-5.1694 276.8032,-4.0021 287.7169,6.9431 17.852,19.8937 285.0606,478.9413 285.0188,490.8402 -0.024,6.9412 -263.4782,469.1036 -277.4788,486.9041 0,0 -124.4554,3.5428 -275.8017,6.9867 z m 1751.3278,-10.8069 c -4.9573,-5.9667 -63.3479,-104.3393 -129.6534,-219.5941 -66.3087,-114.2629 -128.6636,-222.5626 -138.5645,-238.4625 l -18.8135,-29.8059 143.246,-247.4102 143.2313,-247.4101 287.7314,-0.9878 287.7461,-1.9754 138.5498,240.438 c 76.2032,132.1461 139.5282,245.4152 141.4956,252.3632 2.9477,10.9178 -258.5219,473.0866 -276.5014,489.8817 -12.9843,11.8544 -569.5448,13.9016 -578.4674,2.9631 z m -2969.9098,-6.2893 -284.7417,-0.9733 -285.7335,-0.9877 -142.5313,-244.4325 c -124.6976,-215.608 -140.5063,-247.3856 -130.4847,-266.1914 7.0072,-10.8834 71.1055,-122.7169 144.223,-248.3978 l 132.2203,-227.6121 283.7645,-2.0046 284.7418,-0.9877 140.5333,242.428 c 77.1949,133.1411 140.521,247.3907 140.504,252.3487 -0.017,4.9579 -63.1357,118.7775 -141.2624,253.3655 z m -1780.1462,-6.1443 -278.7622,-0.9586 -277.7851,-0.9588 -53.4364,-91.4079 c -29.6922,-50.6742 -95.0202,-162.9601 -144.5002,-249.4001 l -91.0491,-155.9877 142.2396,-246.4224 141.2333,-245.4347 201.1306,-5.2437 c 109.5305,-3.5883 238.9691,-6.1168 285.7625,-5.9553 l 84.6321,0.2904 144.4856,248.3979 143.5084,247.3957 -124.2135,215.7449 c -68.1155,118.757 -135.2145,232.5612 -149.2254,253.3364 z m -2041.9616,-16.9656 -284.7417,-0.9733 -140.5334,-241.4546 c -76.1993,-133.1377 -139.5332,-246.3992 -139.5122,-252.3488 0.021,-5.9496 63.1538,-120.7568 141.277,-254.3532 l 141.2333,-243.4448 278.7621,2.9486 279.754,3.9364 141.5251,243.4302 c 78.187,134.1361 142.5083,247.4014 142.4874,253.351 -0.017,4.9579 -62.1368,117.7909 -137.2664,249.4146 l -138.2289,239.4939 z M 756.39443,5230.319 c -186.21648,10.2648 -465.96703,5.3319 -476.87384,-7.5967 C 265.6442,5204.8256 20.207398,4781.563 8.3567413,4753.7571 -1.5303112,4733.891 12.502584,4704.1887 119.67786,4519.1293 186.79076,4402.352 252.89093,4291.5242 264.90723,4271.7336 l 24.02016,-36.6038 281.76654,-0.029 281.76656,-1.0023 142.50208,246.4078 c 78.18363,135.1278 142.50453,251.3708 142.48763,256.3288 -0.021,5.9496 -62.1332,116.7921 -138.25822,248.4124 l -138.22892,238.492 z m 11624.50257,-469.5462 -284.742,-0.9877 -285.732,-0.9877 -144.501,-248.3978 -143.508,-248.3979 141.248,-247.4102 142.239,-246.4224 288.723,0.015 288.738,0.9877 141.525,242.4425 c 77.192,134.1327 140.524,246.4032 140.504,251.3611 -0.01,3.9664 -64.138,117.7858 -142.269,253.3655 z m -4126.8289,-4.3285 -41.5649,-71.5374 c -23.7565,-39.746 -87.0948,-148.0596 -140.5333,-241.4547 -54.4374,-92.4069 -98.9601,-172.8719 -98.9392,-178.8215 0.017,-4.9579 64.1276,-119.7651 142.2543,-254.3533 l 143.2313,-245.4201 215.0585,0.7408 c 118.4772,0.4091 245.9143,-2.1311 281.7665,-4.9822 l 64.7393,-6.7107 145.4918,251.3756 146.4691,250.3878 -145.2295,249.3856 -145.2292,248.3833 -283.7647,2.0045 z m 1774.2099,-3.7911 -141.5243,-243.4302 c -109.8533,-189.7751 -139.5151,-248.3823 -132.4975,-262.2405 5.0126,-9.8987 70.1141,-123.711 144.2377,-252.3633 l 135.2251,-233.553 283.749,0.9732 283.75,0.9877 141.525,243.4302 c 77.192,134.1328 140.51,248.3853 140.49,255.3264 -0.02,6.9411 -63.142,119.7593 -139.264,250.3879 l -139.222,237.5039 -287.73,1.9899 z m -3542.3679,-12.2304 -138.5644,-239.4502 c -76.2029,-132.1461 -139.5365,-243.4331 -141.5104,-248.3979 -1.974,-4.9648 61.16,-119.7719 139.2937,-256.3432 l 143.2313,-247.4101 285.7334,0.9877 285.748,0.9877 140.5187,244.4179 141.525,244.4324 -21.0304,35.6162 c -11.0208,19.7941 -76.1291,132.6117 -144.2376,249.3856 l -124.199,212.7671 -283.75,2.0046 z m -1203.6915,-4.1542 -279.7685,-0.9732 -278.7768,-0.9586 -140.5333,-242.4425 c -77.1983,-132.1496 -141.5053,-246.3963 -143.4793,-251.361 -1.9705,-5.9565 60.15,-119.7763 137.281,-254.3679 l 140.227,-243.4592 205.0974,0.7117 c 112.5036,0.3883 237.9612,-2.1483 278.7915,-4.9822 l 73.6938,-5.694 146.4691,254.3533 147.4607,253.3656 -143.2313,248.3979 z m -2324.7491,-8.0326 -14.8613,-21.8606 c -33.6642,-53.6627 -264.2507,-455.0657 -269.1804,-468.9651 -3.9479,-9.9296 45.1732,-105.942 132.3224,-258.3478 l 139.2352,-241.4837 h 283.7501 l 284.7417,0.9731 141.5395,243.4302 c 84.1229,145.0643 139.5002,251.3617 136.4789,261.2673 -2.0222,8.9175 -65.1404,121.7429 -140.2561,249.4002 l -136.2163,232.5507 -278.7769,2.019 z m -1619.8513,-5.5922 -160.2949,-0.552 -142.5167,-245.4201 c -78.18363,-135.1277 -143.49987,-248.39 -145.47727,-252.3633 -1.97742,-3.9732 60.13479,-115.818 138.25807,-249.4147 l 140.227,-241.4546 281.7811,-4.9822 c 211.0825,-3.2377 283.7607,-1.9976 292.6902,6.9576 16.8632,17.907 283.0947,476.9474 283.05,489.838 -0.021,5.9496 -62.1511,117.7838 -138.2728,248.4124 l -138.2143,237.5184 -125.4678,5.5051 c -68.7108,3.7292 -197.1537,6.2613 -285.7626,5.9554 z m 9580.5448,-482.5608 -138.551,-241.4257 c -76.203,-132.1462 -138.526,-245.4078 -138.506,-252.3488 0.02,-6.9412 63.143,-120.7678 140.271,-254.3678 l 140.227,-243.4448 287.716,3.9655 286.74,2.9777 142.517,244.4325 141.525,244.4179 -142.24,246.4224 -143.23,246.4079 -288.739,0.9877 z m -1201.709,-4.1398 -287.7315,-1.0023 -287.7315,-0.9877 -29.6788,-51.6666 c -15.8295,-28.8111 -79.171,-139.1036 -141.5249,-245.4202 l -111.8316,-193.739 144.2376,-250.3878 145.244,-250.3733 284.7417,0.9877 284.7417,0.9877 138.5499,240.438 c 76.2066,131.1545 139.5285,244.4275 141.4954,251.3755 0.9755,5.9531 -61.1561,120.764 -138.2869,255.3556 z m -2055.9333,-7.1029 -280.7601,-0.9732 -68.2832,-116.2463 c -37.6088,-64.5838 -102.9367,-175.8675 -144.5002,-248.3978 l -76.217,-130.1616 143.2459,-248.3979 143.2314,-248.3978 279.7686,0.9586 280.7601,0.9732 143.5084,248.3978 144.4856,248.398 -142.2396,247.4101 -142.2251,246.4224 z m -2045.9868,-2.1061 -67.306,-114.2709 c -154.3967,-264.2991 -217.7215,-376.556 -217.6836,-387.4635 0.021,-5.9495 63.1427,-119.7729 141.2625,-252.3778 l 141.2187,-242.457 279.7685,2.9486 279.7539,3.9509 141.5249,243.4303 c 77.1916,134.1326 141.5099,247.3946 141.4959,251.361 -0.014,3.9664 -63.1281,116.7806 -141.2478,249.3855 l -140.2271,241.4693 -279.7831,2.0191 z M 4121.142,4214.6345 c -220.036,1.2235 -286.7289,-1.9746 -293.6672,-10.923 -9.9111,-12.9251 -246.4448,-419.312 -268.2033,-461.0344 -9.8905,-18.8746 7.1411,-52.532 131.3452,-267.2807 l 143.2314,-246.4079 287.7315,0.9877 287.7315,1.0022 140.5331,243.4302 141.5251,243.4302 -32.0414,54.4264 c -17.0289,29.6893 -81.1345,141.5086 -143.2313,247.3957 l -111.1899,192.9837 z m -1494.4127,-3.1666 -280.7602,-0.9731 -280.7603,-0.9731 -144.5002,-249.3857 -145.4773,-249.4 143.2313,-246.4079 142.2251,-246.4225 287.7315,3.9655 286.7252,2.9776 140.5332,242.4425 141.525,242.428 -145.2294,250.3733 z m 5644.8544,-484.2458 -133.5911,-231.5048 c -73.2333,-127.1779 -138.5496,-240.4547 -145.4773,-252.3778 -9.8905,-18.8746 5.1502,-49.553 132.3515,-267.2663 l 143.2313,-247.4101 277.785,-2.0191 278.7769,-3.0067 145.4918,251.3756 c 124.6942,216.5995 143.4743,254.3581 134.4518,272.1758 -6.0117,10.8868 -70.1173,122.7062 -143.2314,247.3957 l -132.2203,227.612 -278.7768,2.019 z m 2332.7563,-3.8492 -284.742,-0.9877 -285.734,-0.9877 -138.5641,-239.4503 c -76.2027,-132.146 -139.5364,-243.4185 -141.5103,-248.3833 -1.974,-4.9649 61.16,-119.7717 139.2936,-256.3432 l 143.2308,-247.4101 285.733,0.9877 286.74,0.9878 142.518,246.4079 143.508,245.4201 -23.044,39.5816 c -12.022,21.7737 -77.128,134.602 -144.237,250.3878 z m -4118.8091,-18.1856 c -3.9618,-5.9633 -68.2909,-117.2401 -143.5084,-246.4079 l -135.5892,-235.4849 146.2356,-252.3487 147.2421,-253.3511 280.7601,0.9733 280.7603,0.9731 140.5333,242.428 c 77.1949,133.141 140.5249,247.4015 140.5041,253.351 -0.038,10.9076 -265.5009,475.0496 -278.4851,486.904 -12.9843,11.8543 -569.5303,13.9015 -578.4528,2.9632 z m -1554.1641,-1.3945 -205.0975,-0.7118 -143.4939,-249.3856 -144.5001,-248.3978 141.2333,-244.447 142.2249,-244.4324 88.6428,-7.6258 c 49.7942,-3.7945 179.2283,-5.3316 287.746,-3.9654 l 199.118,3.6604 141.525,244.4178 141.5103,244.4325 -142.2249,247.4102 -143.246,247.4101 -79.6734,6.6526 c -43.8171,2.8236 -171.2609,5.3706 -283.7645,4.9822 z m -1415.7603,-4.895 -281.752,-0.9733 -281.7519,-0.9731 -144.5002,-249.3856 -144.5002,-248.3979 143.2313,-246.4224 142.2397,-247.4101 287.7315,3.9654 287.7168,2.9776 141.5251,243.4303 141.5249,243.4447 -19.0177,29.6753 c -10.0113,15.831 -75.1125,128.6483 -145.2295,250.3733 z m -2345.6482,-8.0907 -131.6369,-225.5494 c -72.24449,-125.1913 -136.57714,-235.4909 -143.50842,-246.4225 -11.88517,-17.8899 2.16073,-46.5962 130.36802,-267.2808 l 143.2313,-247.3956 287.7462,-1.0022 287.7314,-1.9755 138.5498,240.4525 c 76.2062,131.1545 139.5288,245.4008 141.4958,252.3488 1.9671,6.948 -60.1606,120.7682 -136.2892,253.38 l -139.2207,240.4816 -289.7295,1.9754 z M 9149.5227,3212.6329 9007.9978,2968.215 c -106.8836,-184.8069 -140.5031,-249.3884 -133.489,-262.2551 4.0169,-9.9021 69.115,-121.7213 142.2396,-249.3856 l 135.2245,-232.5651 277.7997,-6.9723 c 228.0147,-5.1624 280.774,-3.9841 290.6921,6.9576 12.8911,14.9185 256.3676,431.241 273.1615,468.9797 8.8918,19.8628 -9.1596,56.4907 -133.3575,269.2563 l -143.2313,247.3956 -283.75,1.0168 z m -1203.6476,-14.0751 -281.7667,-0.9731 -280.7602,-0.9732 -70.2666,-119.2241 c -76.2062,-131.1544 -208.828,-359.6825 -213.7751,-368.6241 -1.9808,-2.9816 61.1343,-116.798 139.2644,-252.3778 l 143.2314,-246.4223 287.7316,1.0022 287.7314,0.9877 140.5479,240.4525 140.5331,241.4403 -146.2356,252.3632 z m -1770.1999,-6.1151 -277.7704,-0.9587 c -276.779,-0.9555 -277.7775,-0.9562 -291.6401,-22.8193 -32.6722,-52.6677 -263.2517,-455.0516 -269.1805,-467.9629 -2.9521,-9.9262 49.1682,-109.9036 131.3015,-251.4192 75.1227,-129.6404 140.2161,-238.5009 143.2168,-242.4569 3.9962,-3.9527 132.4537,-7.4725 285.7772,-6.9432 l 278.7622,-0.029 140.5478,241.4548 c 78.1906,133.1447 141.5168,246.3992 141.4959,252.3488 -0.024,6.941 -63.1503,120.7529 -141.2771,255.341 z m -2049.9538,-7.0739 -285.7334,-0.9877 -135.5892,-233.4948 c -74.2219,-129.1645 -137.5483,-242.4265 -140.5041,-251.361 -1.9567,-9.9229 54.1744,-118.8034 137.3102,-262.2987 l 142.225,-244.4324 284.7417,2.9632 283.7355,3.9654 142.5166,245.4056 142.5167,244.4325 -143.2313,248.3978 -143.2313,247.4101 z m -2064.8878,-7.1173 -140.5334,-243.4303 c -78.1905,-133.1445 -141.5126,-247.4052 -141.4957,-252.3632 0.017,-4.958 63.1357,-117.7752 141.2624,-252.3634 l 141.2334,-243.4446 286.7251,0.9877 286.7398,0.9877 131.6369,226.5372 c 72.2479,124.1996 136.577,234.4886 143.5084,245.4202 11.8816,18.8815 -0.1666,44.6164 -129.3764,267.2808 l -143.2313,247.4102 -288.7232,0.9877 z m 6773.9186,-492.2493 -279.7685,-0.9733 -280.7602,-0.9732 -140.5334,-242.4279 c -77.1947,-133.1411 -140.5173,-248.396 -140.4894,-256.3287 1.0197,-6.9377 63.1428,-119.7592 139.2645,-250.3879 l 139.2206,-237.5038 286.7398,0.9877 287.7315,1.0023 139.5415,241.4402 140.5332,241.4402 -145.2439,251.361 z m -2044.9805,-7.0593 c -280.7612,-0.9693 -281.7589,-0.9854 -295.6216,-22.8484 -30.6912,-49.6862 -263.2555,-454.0675 -268.1886,-466.9753 -2.9593,-7.943 58.1811,-123.7416 135.3121,-258.3331 l 142.225,-244.447 280.7603,0.9732 280.7602,0.9732 139.5416,241.4402 c 77.1983,132.1496 141.5233,245.4191 143.4939,251.3756 1.9704,5.9564 -60.1499,119.7762 -137.2811,254.3677 l -140.2416,243.4448 z m -1491.423,-5.1566 -284.7418,-0.9877 -284.7417,-0.9732 -140.5332,-243.4302 c -78.1906,-133.1445 -139.5185,-248.3884 -137.4998,-256.3142 2.0155,-6.9342 66.1291,-120.7431 142.2543,-252.3632 l 139.2352,-239.4939 283.7353,2.9632 282.7438,3.9509 142.5167,245.4201 142.5168,245.4202 -142.2396,248.3979 z M 2955.6903,2665.6957 2838.9,2464.999 c -64.3278,-111.2814 -128.6494,-222.5648 -143.4938,-248.3978 l -26.7328,-45.7112 142.2395,-246.4225 143.2314,-245.4202 287.7316,-0.9877 287.7459,-1.9754 141.5251,244.4179 141.5249,244.4179 -143.2458,249.4002 -144.2377,248.3833 -284.7563,1.9899 z m 6206.4186,-494.2103 -140.5332,-242.4279 c -77.1914,-134.1326 -140.503,-249.3764 -139.4833,-256.3141 0.024,-6.9411 62.1367,-119.7738 138.2582,-250.4023 l 138.2289,-237.5039 287.7316,0.9877 287.7315,1.0022 140.5187,243.4157 c 78.191,133.1446 141.5207,247.4049 140.5037,253.3511 -0.02,4.9579 -62.1354,116.796 -138.2578,247.4246 l -138.229,237.5039 -288.7232,1.9753 z m -1203.6914,-4.1542 -285.7335,-0.9877 c -285.7393,-0.9864 -286.7322,-0.9852 -300.5947,-22.8484 -7.92,-12.918 -72.2526,-123.2032 -143.5084,-246.4079 -116.7845,-200.7066 -127.6616,-224.5405 -116.6445,-243.343 7.0072,-10.8835 73.1181,-123.7046 146.2357,-249.3855 l 133.212,-230.5753 280.7602,0.9586 280.7603,0.9733 140.5479,242.4424 c 76.1993,133.1377 140.5135,246.3962 142.4875,251.361 1.9705,5.9565 -60.1499,119.7763 -137.281,254.3679 z m -2341.6668,-8.076 -143.5083,-247.4101 -144.4857,-248.3979 142.2251,-245.4202 142.2396,-245.4348 286.7251,0.9878 286.7398,1.0023 118.759,203.6888 c 64.3246,112.2731 128.6615,221.5667 141.525,244.418 l 23.7576,40.729 -142.2396,246.4224 -143.2313,246.4224 -283.75,1.99 z M 3846.5655,2153.14 3708.0157,1912.7021 c -76.2027,-132.1462 -139.5287,-245.4154 -141.4958,-252.3634 -1.967,-6.948 60.1461,-120.7682 136.2747,-253.38 l 139.2351,-240.4815 282.7584,-1.0023 282.7583,-2.0045 144.5002,250.3878 144.4854,250.3879 -141.2332,242.457 -141.2187,243.4447 -283.7646,1.0022 z m -1204.6978,-4.1543 -288.7233,-1.0022 -288.7231,-0.9877 -133.6058,-229.5294 c -73.2333,-127.1779 -137.5586,-238.4503 -142.5021,-248.3834 -5.9288,-12.9113 25.1472,-75.2838 135.3266,-265.2908 l 143.2314,-248.3979 285.748,0.9877 285.7334,0.9877 144.5003,248.3979 144.5001,248.3978 -143.2459,247.4102 z m 7408.1273,-490.0559 -140.5338,-242.4424 c -77.1949,-133.1412 -140.521,-247.391 -140.5041,-252.3488 0.017,-4.958 63.1358,-118.7775 141.2625,-253.36559 l 141.2324,-243.44472 285.748,0.98772 286.725,0.98772 143.509,248.39786 143.509,247.39561 -141.247,245.4347 -142.226,245.4346 -288.738,1.9755 z m -1485.4586,-3.1521 c -240.9473,2.1431 -283.7523,0.015 -294.6591,-12.9129 -11.9023,-12.9319 -241.5098,-406.404 -272.17,-465.0143 -10.8827,-19.8696 3.1456,-46.5886 131.3598,-269.2563 l 143.2313,-247.41013 284.7562,0.98772 283.7355,0.9732 142.5167,245.42017 c 78.1837,135.12774 141.5021,250.37924 141.4812,256.32874 -0.017,4.958 -62.1291,117.7834 -139.2499,249.4001 l -139.2351,239.4792 z m -1490.4021,-8.1196 -285.748,-0.9878 -284.7418,0.015 -82.1528,-141.0991 c -44.5296,-78.4903 -109.8433,-189.7666 -143.4938,-247.3957 l -61.3703,-105.3232 143.2313,-246.42245 142.2397,-246.40788 287.746,-1.98999 287.7315,-0.98771 138.5499,239.45025 c 76.2027,132.14608 138.5414,245.41148 138.5205,251.36108 -0.024,6.9411 -63.1577,121.7409 -140.2853,255.3409 z m -1772.1979,-5.1275 -283.75,-0.9731 -283.7354,-0.9877 -143.5085,-249.3856 c -79.1723,-137.1143 -142.4833,-253.3531 -140.4748,-258.3042 4.041,-16.8432 255.4384,-448.30662 270.4346,-466.10368 12.9947,-14.82916 43.868,-16.71328 294.761,-15.84715 l 279.7686,-0.0146 142.5166,247.39562 c 79.1759,136.12281 143.4893,249.38851 143.4793,252.36331 0.9853,2.9782 -62.1222,114.8124 -139.2498,248.4123 z m -1772.1832,-6.1151 -285.7335,-0.9877 -285.7335,-0.9877 -53.451,-91.408 c -29.6923,-50.6742 -95.0054,-162.9455 -144.4856,-249.3856 l -91.0636,-156.9899 143.2313,-246.42242 143.2458,-247.41015 288.7233,1.98998 288.7233,1.00225 123.703,214.61191 c 68.2862,118.23632 132.6193,229.51643 142.5167,246.40793 l 18.7991,32.7837 -144.2377,248.3978 z M 9166.6447,1153.1283 9024.1425,905.73271 c -78.1802,-136.11931 -144.4916,-250.38002 -146.469,-254.35325 -2.9661,-5.95985 201.4048,-368.18188 264.4697,-466.13273 l 23.0284,-36.61838 285.7335,2.97768 284.7272,3.95091 142.5167,245.42016 143.508,246.40789 -143.2309,247.41014 -143.2314,247.41017 -160.2948,-0.552 c -87.6134,-0.3024 -215.072,2.2301 -283.7792,4.9677 z m -3387.047,-14.6705 -160.2948,-0.552 -144.4855,-248.39789 c -79.1758,-136.12275 -144.4849,-251.37463 -144.471,-255.34098 0.017,-4.95794 63.1175,-114.80264 138.2435,-245.43469 l 138.229,-237.50387 119.4882,-5.54867 c 64.7282,-3.74296 195.1581,-6.26352 289.7442,-6.92859 l 170.2558,-0.40671 144.5001,249.40011 144.4856,249.38559 -142.225,245.43469 -142.2396,244.43241 -125.4678,6.5074 c -68.7072,2.7376 -197.1535,5.2591 -285.7627,4.9532 z" />
  </g>
</svg>
